<svg version="1.2" xmlns="http://www.w3.org/2000/svg" viewBox="0 0 256 256" width="256" height="256">
	<title>FrenSuipport</title>
	<style>
		.s0 { fill: #000000 } 
		.s1 { fill: #f5cf54 } 
		.s2 { fill: #e250ff } 
	</style>
	<path id="Layer" fill-rule="evenodd" class="s0" d="m114.5 238.8c-2.2-2-3.2-5.3-8-27.3-8.1-36.5-7.8-36.1-39.4-45.4-12-3.5-21.2-6.8-22.3-7.9-1-1-2.1-3.4-2.4-5.3-1-6 1.8-8 24.9-18.3 11.5-5 22.4-10.5 24.3-12 5.6-4.4 8-11.1 14.9-42 5.7-25.1 7.5-32.3 7.5-29.2 0 0.4 1 0 2.2-0.8 4.1-2.9 10.6-1.7 12.8 2.4 0.5 1 3.4 14.9 6.4 30.9 3 15.9 6 30 6.7 31.3 2.4 4.6 6 8.5 9.3 10.3 1.9 1.1 3.2 2.3 2.9 2.8-0.3 0.6-0.1 0.7 0.4 0.4 1.6-1 31.4 12.9 34.1 15.9 2.5 2.9 2.9 7.9 0.8 11-0.9 1.2-9.6 5.6-20.8 10.5-21.8 9.5-26.3 12.8-29.1 21.5-0.9 2.7-3.5 13.9-5.7 24.9-4.9 23.5-5.4 25.1-9.1 27-4 2.1-7.4 1.8-10.4-0.7zm16-59.2c2.2-5.2 9.4-12.7 14.7-15.3 2.4-1.2 9-4.2 14.8-6.7 5.8-2.6 11.9-5.3 13.5-6l3-1.4-6-2.7c-21.6-9.7-28.3-13.4-32.7-18.4-5.7-6.4-7.5-11.8-12.4-38.8-2.1-11.7-4.1-21.3-4.4-21.3-0.3 0-3 10.7-5.9 23.8-8.3 37.1-8.2 37-43 52.3l-14.4 6.3 9.4 2.9c27.6 8.2 28.7 8.7 34.4 13.9 3.1 2.8 6.5 7.1 7.9 10.1 1.3 2.9 4.4 14.2 6.7 25.1l4.3 19.9 4.2-19.9c2.3-10.9 5-21.6 5.9-23.8z"/>
	<path id="Layer" fill-rule="evenodd" class="s0" d="m173.6 109.1c-1-1.1-2.8-6.8-4.2-12.8-4-17.8-3.5-17.3-18.9-21.7-9-2.6-12.5-5-12.5-8.5 0-3.2 2.5-5 13-9.6 5.8-2.6 11.3-5.5 12.4-6.5 1.2-1.2 3-6.8 5.2-16.2 1.8-7.8 3.6-15.2 3.8-16.4 0.4-1.5 1.4-2.1 4.4-2.2 5.8-0.4 6.8 1.5 9.7 17.4 1.5 8 3.3 15 4.3 16.4 1 1.4 6.2 4.6 11.5 7.2 15.5 7.5 15.5 11.7 0 18.2-12.5 5.4-13 5.9-16.3 21.1-2.9 13.3-4.1 15.5-8.5 15.5-1.2 0-3-0.9-3.9-1.9zm7.7-35.5c1.1-1.5 4.6-4.1 7.8-5.6l5.9-2.7-4.5-1.7c-6.9-2.7-12.1-10-12.6-17.6 0-0.8-0.7 0.6-1.4 3.2-1.8 6.8-4.8 10.3-11.2 13.4l-5.7 2.7 5.1 1.9c5.9 2.2 11.1 7.4 12 12.1l0.6 3.2 1-3c0.5-1.7 1.9-4.3 3-5.9z"/>
	<path id="Layer" class="s1" d="m118.6 231.3c-0.3-1-2.8-12.1-5.5-24.7-5.5-25-6.9-28.4-14.5-35.4-5.6-5.2-5.5-5.1-29.1-12.2-12.3-3.6-19.1-6.1-19.3-7.1-0.2-0.9 3.5-3 11-6.3 33.1-14.5 38.4-17.8 43.2-27.4 1.3-2.7 5-16.5 8.6-32.1 6.7-29.6 6.8-30.1 8-30.1 1.5 0 1.8 1.1 6.5 26.5 6.2 33.7 7.4 37.5 14.4 44.5 4.9 4.8 8 6.6 23.9 13.9 10 4.6 18.2 8.8 18.2 9.3 0 0.9-4.4 3-24.5 11.9-5.5 2.4-11.6 5.3-13.5 6.5-4.7 2.8-10.6 9.5-12.5 14.1-1.2 2.7-11.5 47.8-11.5 50 0 1.2-3-0.1-3.4-1.4z"/>
	<path id="Layer" class="s2" d="m175.6 89.9c-1-4.6-2.4-9.6-3.2-11-2.2-4.4-7.2-7.8-14.7-10-4-1.2-7.6-2.5-8-2.9-0.4-0.4 2.3-1.9 6-3.5 14.4-5.9 15.6-7.4 19.4-23 1.4-6 2.9-10.3 3.2-9.5 0.3 0.8 1.3 5.5 2.2 10.5 2.6 13.9 4.4 16.3 16.3 21.6l7.4 3.2-9 4.2c-10.4 5-12.6 7.5-14.8 17.2-2.9 12.4-2.8 12.4-4.8 3.2z"/>
</svg>