<?xml version="1.0" encoding="utf-8"?>
<!DOCTYPE svg PUBLIC "-//W3C//DTD SVG 1.0//EN" "http://www.w3.org/TR/2001/REC-SVG-20010904/DTD/svg10.dtd">
<svg version="1.0" xmlns="http://www.w3.org/2000/svg" width="391px" height="38px" viewBox="0 0 391 38" preserveAspectRatio="xMidYMid meet">
 <g fill="#000000">
  <path d="M179.25 37.05 c-4.75 -0.75 -7.60 -3.05 -8.30 -6.65 -0.20 -1.20 -0.40 -6.80 -0.45 -12.50 l0 -10.30 3.10 -2.70 c3.05 -2.65 3.10 -2.65 6.85 -2.80 4.80 -0.20 5.80 0.40 5.70 3.35 l-0.10 2.10 2 -1.65 c4.75 -3.95 4.85 -4 9.10 -3.80 2.75 0.10 4.05 0.40 4.40 0.90 0.30 0.45 0.40 5.35 0.35 12.50 -0.10 9.35 -0.30 12 -0.90 13.05 -1 1.80 -6.90 6.70 -9.15 7.65 -2.25 0.90 -9.15 1.40 -12.60 0.85z"/>
  <path d="M304 37.05 c-3.75 -0.40 -6.50 -1.95 -7.85 -4.35 -1.05 -1.85 -1.15 -2.55 -1.15 -11.35 0 -7.50 0.15 -9.70 0.75 -10.90 1 -1.85 7.65 -7.20 9.85 -7.85 4.50 -1.40 13 -1.05 16.65 0.70 3.60 1.70 3.80 2.55 3.65 14.65 l-0.15 10.70 -3.50 3.15 c-1.90 1.75 -4.40 3.60 -5.50 4.15 -2.25 1.05 -8.50 1.60 -12.75 1.10z"/>
  <path d="M1.55 36.30 c-0.40 -0.45 -0.55 -4.80 -0.45 -14.85 l0.15 -14.15 3.15 -2.65 3.10 -2.65 9.40 0 c11.55 0 11.35 -0.10 11.35 5 0 3.50 -0.05 3.60 -1.75 5 l-1.75 1.45 0.15 4.40 0.20 4.40 -3.10 2.65 c-1.85 1.55 -3.60 2.60 -4.30 2.60 -1.10 0 -1.20 0.20 -1.20 2.15 0 2 -0.20 2.30 -3.10 4.75 l-3.15 2.60 -4.05 0 c-2.85 0 -4.25 -0.20 -4.65 -0.70z"/>
  <path d="M30.60 36.55 c-0.50 -0.30 -0.65 -3.45 -0.60 -14.85 l0 -14.45 2.15 -1.90 c3.90 -3.45 4.10 -3.50 13.30 -3.25 8.95 0.25 10.45 0.60 12.20 3 1.25 1.65 1.75 6.60 0.90 8.95 -0.50 1.40 -0.45 1.70 0.45 2.30 2 1.40 2.50 3.30 2.50 9.25 0 3.10 -0.20 5.90 -0.40 6.15 -0.20 0.30 -1.60 1.60 -3.15 2.90 l-2.80 2.35 -4 0 c-2.40 0 -4.20 -0.25 -4.55 -0.60 -0.35 -0.35 -0.60 -2.05 -0.60 -4.20 0 -2 -0.20 -3.80 -0.50 -3.95 -0.30 -0.20 -0.50 0.50 -0.50 1.70 0 1.80 -0.25 2.20 -3.05 4.50 l-3.05 2.55 -3.80 0 c-2.15 0 -4.15 -0.20 -4.50 -0.45z"/>
  <path d="M64.30 36.20 c-0.70 -0.65 -0.80 -2.70 -0.80 -14.65 l0 -13.85 1.90 -1.75 c4.35 -4.15 3.60 -3.95 14.65 -3.95 11.75 0 11.45 -0.15 11.45 5 0 3.25 -0.05 3.50 -1.60 4.70 -1.60 1.25 -1.65 1.40 -1.65 5 0 3.45 -0.10 3.85 -1.45 5.25 l-1.50 1.55 2.50 0 c1.40 0 2.75 0.25 3.10 0.60 0.35 0.35 0.60 2 0.60 3.90 0 3.15 -0.10 3.35 -1.85 5.05 -4.40 4.15 -3.65 3.95 -14.70 3.95 -8.30 0 -10 -0.10 -10.65 -0.80z"/>
  <path d="M94.30 36.20 c-0.70 -0.65 -0.80 -2.70 -0.80 -14.65 l0 -13.90 2.15 -2 c3.75 -3.45 4.50 -3.80 7.85 -3.55 2.65 0.20 3.25 0.45 4.90 2.05 1.05 1 2.05 1.85 2.20 1.85 0.15 0 1.40 -0.90 2.70 -2 2.30 -1.90 2.60 -2 5.85 -2 5.75 0 5.35 -1.20 5.35 15.40 l0 14.40 -3.10 2.60 -3.15 2.60 -3.75 0 c-2.05 0 -4.05 -0.20 -4.45 -0.45 -0.35 -0.25 -0.75 -1.45 -0.90 -2.70 l-0.25 -2.25 -3.20 2.70 -3.20 2.70 -3.70 0 c-2.70 0 -3.95 -0.20 -4.50 -0.80z"/>
  <path d="M140.65 36.45 c-0.40 -0.40 -0.65 -2.05 -0.65 -4.30 l0 -3.65 2 -1.40 c1.05 -0.75 1.95 -1.50 2 -1.65 0 -0.15 -0.50 -0.55 -1.15 -0.90 -2.05 -1.10 -2.85 -3.25 -2.85 -7.75 0 -5.15 1.05 -7.35 5 -10.55 4.45 -3.65 5.35 -3.90 13.55 -4.15 8.85 -0.25 8.95 -0.20 8.95 4.90 0 3.25 -0.05 3.45 -1.75 4.95 -2 1.75 -2.10 2.05 -0.85 2.05 1.15 0 2.85 1.75 3.55 3.65 0.95 2.45 0.70 8.25 -0.45 10.60 -0.95 2 -5.60 6.20 -8.50 7.80 -1.80 0.95 -18 1.30 -18.85 0.40z"/>
  <path d="M204.60 36.40 c-0.35 -0.35 -0.60 -2.05 -0.60 -4.20 l0 -3.65 2.50 -2.10 2.50 -2.10 0 -4.20 0 -4.15 -1.55 0 c-3 0 -3.45 -0.60 -3.45 -4.95 l0 -3.95 3.30 -2.55 3.35 -2.55 8.90 0 c10.80 0 10.95 0.05 10.95 5.10 l0 3.10 -2.75 2.55 -2.75 2.50 0 4.15 0 4.10 2.25 0 c2.65 0 3.25 0.80 3.25 4.45 0 3.35 -0.20 3.70 -3.60 6.55 l-3 2.50 -9.35 0 c-6.60 0 -9.55 -0.20 -9.95 -0.60z"/>
  <path d="M233.60 36.55 c-0.50 -0.30 -0.65 -3.45 -0.60 -14.85 l0 -14.45 1.90 -1.65 c3.95 -3.50 4.25 -3.60 11.45 -3.60 9.75 0 13.35 1 14.95 4.10 0.95 1.85 1.45 7.40 0.95 11.20 -0.30 2.70 -0.55 3.10 -3.30 5.80 -3.70 3.60 -4.80 4.35 -7.80 5.10 -2 0.50 -2.40 0.85 -2.75 2.15 -0.25 1.05 -1.45 2.45 -3.45 4.10 l-3.05 2.55 -3.80 0 c-2.15 0 -4.15 -0.20 -4.50 -0.45z"/>
  <path d="M264.55 36.30 c-0.40 -0.45 -0.55 -4.80 -0.45 -14.85 l0.15 -14.15 3.20 -2.70 3.20 -2.70 8.30 0.20 c10 0.30 12 0.85 13.65 4.05 0.80 1.60 1.05 3.05 1.05 6.35 0.05 6.35 -0.35 7.70 -3.05 10.35 -3.45 3.30 -6.10 5 -8.60 5.50 -2 0.40 -2.30 0.60 -2.50 2.05 -0.20 1.15 -1 2.25 -3.25 4.10 l-2.95 2.50 -4.10 0 c-2.85 0 -4.25 -0.20 -4.65 -0.70z"/>
  <path d="M329.60 36.55 c-0.50 -0.30 -0.65 -3.45 -0.60 -14.85 l0 -14.45 2.15 -1.90 c3.85 -3.45 4.05 -3.50 13.30 -3.25 9 0.20 10.40 0.55 12.20 3 1.25 1.65 1.75 6.60 0.90 8.95 -0.50 1.40 -0.45 1.70 0.45 2.30 2 1.40 2.50 3.30 2.50 9.25 0 3.10 -0.20 5.90 -0.40 6.15 -0.20 0.30 -1.60 1.60 -3.15 2.90 l-2.80 2.35 -4 0 c-2.40 0 -4.20 -0.25 -4.55 -0.60 -0.35 -0.35 -0.60 -1.85 -0.65 -3.35 -0.05 -1.55 -0.25 -3.35 -0.45 -4.05 -0.35 -1.05 -0.40 -0.95 -0.45 0.85 -0.05 1.90 -0.30 2.25 -3.10 4.60 l-3.05 2.55 -3.80 0 c-2.15 0 -4.15 -0.20 -4.50 -0.45z"/>
  <path d="M367.60 36.40 c-0.45 -0.45 -0.60 -3.45 -0.60 -10.50 l0 -9.90 -2.85 0 c-4.05 0 -4.35 -0.30 -4.55 -4.50 l-0.20 -3.60 2.65 -2.50 c1.50 -1.35 3.20 -2.70 3.85 -2.95 1.65 -0.65 21.95 -0.60 23.15 0.05 0.80 0.45 0.95 1.10 0.95 4.45 l0 3.95 -3.50 2.65 -3.50 2.70 0 7.60 0 7.65 -3.35 2.75 -3.35 2.75 -4.05 0 c-2.50 0 -4.30 -0.25 -4.65 -0.60z"/>
 </g>
 <g fill="#ffffff">
  <path d="M179.25 37.05 c-4.75 -0.75 -7.60 -3.05 -8.30 -6.65 -0.20 -1.20 -0.40 -6.80 -0.45 -12.50 l0 -10.30 3.10 -2.70 c3.05 -2.65 3.10 -2.65 6.85 -2.80 4.80 -0.20 5.80 0.40 5.70 3.35 l-0.10 2.10 2 -1.65 c4.75 -3.95 4.85 -4 9.10 -3.80 2.75 0.10 4.05 0.40 4.40 0.90 0.30 0.45 0.40 5.35 0.35 12.50 -0.10 9.35 -0.30 12 -0.90 13.05 -1 1.80 -6.90 6.70 -9.15 7.65 -2.25 0.90 -9.15 1.40 -12.60 0.85z m16.45 -6.05 c4.50 -1.35 5.30 -4 5.30 -16.95 0 -6.40 -0.20 -9.10 -0.65 -9.75 -0.50 -0.70 -1.25 -0.80 -4.10 -0.70 l-3.50 0.15 -0.25 10.15 c-0.30 11.30 -0.20 11.10 -3.80 11.10 -3.30 0 -3.40 -0.35 -3.70 -11.45 l-0.25 -9.80 -3.85 -0.15 -3.90 -0.15 0 11.55 c0 7.80 0.20 11.90 0.60 12.65 0.90 1.70 2.40 2.80 4.60 3.40 1.15 0.25 2.30 0.60 2.55 0.70 0.95 0.40 9 -0.15 10.95 -0.75z"/>
  <path d="M183.50 28.10 c-0.95 -0.45 -2 -1.40 -2.35 -2.10 -0.75 -1.50 -0.95 -20 -0.20 -20 0.25 0 0.55 4.15 0.65 9.45 0.20 10.90 0.25 11.15 4.60 12.05 3.50 0.70 7.40 -0.10 8.80 -1.85 0.90 -1.20 1 -2.05 1 -10.45 0 -5.80 0.20 -9.20 0.50 -9.20 0.30 0 0.50 3.65 0.50 9.90 0 9.65 -0.05 9.95 -1.10 11 -0.65 0.55 -1.80 1.25 -2.55 1.55 -2.20 0.85 -7.85 0.65 -9.85 -0.35z"/>
  <path d="M304 37.05 c-3.75 -0.40 -6.50 -1.95 -7.85 -4.35 -1.05 -1.85 -1.15 -2.55 -1.15 -11.35 0 -7.50 0.15 -9.70 0.75 -10.90 1 -1.85 7.65 -7.20 9.85 -7.85 4.50 -1.40 13 -1.05 16.65 0.70 3.60 1.70 3.80 2.55 3.65 14.65 l-0.15 10.70 -3.50 3.15 c-1.90 1.75 -4.40 3.60 -5.50 4.15 -2.25 1.05 -8.50 1.60 -12.75 1.10z m14.95 -5.80 c1.70 -0.45 3.30 -1.30 4.25 -2.25 l1.55 -1.50 0.15 -9.40 c0.15 -10.80 -0.15 -12 -3.65 -13.80 -3.10 -1.60 -11.85 -1.80 -15.45 -0.35 -4.15 1.70 -4.50 2.70 -4.70 12.35 -0.20 9.40 0.20 11.65 2.55 13.40 2.90 2.20 10.15 2.95 15.30 1.55z"/>
  <path d="M307.40 28 c-2.55 -1.35 -3.05 -3.45 -2.80 -12 0.15 -7.35 0.35 -7.95 3.05 -9.30 1.80 -0.95 8.10 -1.05 10.55 -0.15 2.80 1 3.30 2.65 3.30 11.05 0 8.05 -0.35 9.20 -3 10.50 -2.55 1.25 -8.65 1.15 -11.10 -0.10z m8.55 -0.55 c4.05 -0.85 4.30 -1.40 4.30 -9.65 0 -8 -0.35 -9.30 -2.95 -10.20 -2.80 -1.05 -7.40 -0.75 -9.35 0.55 l-1.70 1.15 -0.15 7.65 c-0.15 8.95 0.10 9.70 3.50 10.45 2.95 0.65 3.50 0.70 6.35 0.05z"/>
  <path d="M310.10 24.40 c-0.65 -0.65 -0.90 -12.10 -0.30 -13.60 0.25 -0.60 1.05 -0.80 3.25 -0.80 2.35 0 3 0.20 3.45 0.95 0.25 0.55 0.50 3.55 0.50 6.75 0 4.55 -0.15 5.90 -0.80 6.50 -0.95 0.95 -5.20 1.10 -6.10 0.20z"/>
  <path d="M1.55 36.30 c-0.40 -0.45 -0.55 -4.80 -0.45 -14.85 l0.15 -14.15 3.15 -2.65 3.10 -2.65 9.40 0 c11.55 0 11.35 -0.10 11.35 5 0 3.50 -0.05 3.60 -1.75 5 l-1.75 1.45 0.15 4.40 0.20 4.40 -3.10 2.65 c-1.85 1.55 -3.60 2.60 -4.30 2.60 -1.10 0 -1.20 0.20 -1.20 2.15 0 2 -0.20 2.30 -3.10 4.75 l-3.15 2.60 -4.05 0 c-2.85 0 -4.25 -0.20 -4.65 -0.70z m13.15 -5.10 c0.65 -0.25 0.80 -1.15 0.80 -4.75 l0 -4.40 4.15 -0.15 4.10 -0.15 0.15 -2.65 c0.20 -3.70 -0.25 -4.10 -4.75 -4.10 l-3.70 0 0.15 -2.35 0.15 -2.40 5.65 -0.15 5.65 -0.15 -0.15 -3.10 -0.15 -3.10 -9.55 -0.15 -9.60 -0.10 -0.30 1.10 c-0.15 0.65 -0.30 6.60 -0.30 13.25 0 13.95 -0.10 13.65 4.25 13.65 1.45 0 3 -0.15 3.45 -0.30z"/>
  <path d="M11 17.25 l0 -11.30 6.50 0.15 c8.45 0.20 8.90 1.10 0.65 1.30 l-6.15 0.15 0 5.20 0 5.25 4.50 0 c2.65 0 4.50 0.20 4.50 0.50 0 0.30 -1.85 0.50 -4.50 0.50 l-4.50 0 0 4.75 c0 2.85 -0.20 4.75 -0.50 4.75 -0.30 0 -0.50 -4.10 -0.50 -11.25z"/>
  <path d="M30.60 36.55 c-0.50 -0.30 -0.65 -3.45 -0.60 -14.85 l0 -14.45 2.15 -1.90 c3.90 -3.45 4.10 -3.50 13.30 -3.25 8.95 0.25 10.45 0.60 12.20 3 1.25 1.65 1.75 6.60 0.90 8.95 -0.50 1.40 -0.45 1.70 0.45 2.30 2 1.40 2.50 3.30 2.50 9.25 0 3.10 -0.20 5.90 -0.40 6.15 -0.20 0.30 -1.60 1.60 -3.15 2.90 l-2.80 2.35 -4 0 c-2.40 0 -4.20 -0.25 -4.55 -0.60 -0.35 -0.35 -0.60 -2.05 -0.60 -4.20 0 -2 -0.20 -3.80 -0.50 -3.95 -0.30 -0.20 -0.50 0.50 -0.50 1.70 0 1.80 -0.25 2.20 -3.05 4.50 l-3.05 2.55 -3.80 0 c-2.15 0 -4.15 -0.20 -4.50 -0.45z m12.75 -5.45 c0.35 -0.25 0.65 -2 0.75 -4.60 l0.15 -4.25 3.75 0 3.75 0 0.15 4 c0.15 4.75 0.60 5.25 4.35 5.25 4.15 0 4.40 -0.40 4.15 -6.65 -0.15 -4.75 -0.30 -5.40 -1.35 -6.55 -0.70 -0.70 -1.45 -1.30 -1.75 -1.30 -0.30 0 -0.90 -0.25 -1.30 -0.50 -0.60 -0.35 -0.55 -0.65 0.50 -1.75 1.65 -1.75 1.75 -6.50 0.20 -8.60 -1.65 -2.25 -3.90 -2.70 -12.65 -2.55 l-7.80 0.15 -0.15 13.45 c-0.10 10.45 0.05 13.55 0.50 13.90 0.80 0.50 5.95 0.50 6.75 0z"/>
  <path d="M39.75 27.90 c-0.15 -0.35 -0.20 -5.40 -0.15 -11.15 l0.15 -10.50 5.90 0 c5.90 0 5.95 0 7.15 1.40 1 1.20 1.20 1.95 1.20 4.90 0 1.95 -0.25 3.95 -0.50 4.45 -0.40 0.80 -0.25 1.05 0.85 1.60 0.75 0.35 1.65 1.20 2 1.90 0.70 1.40 0.90 8 0.20 8 -0.70 0 -1.05 -1.40 -1.05 -4.55 0 -4.15 -0.70 -4.55 -8.50 -4.65 l-6 -0.05 0 4.35 c0 3.95 -0.60 6 -1.25 4.30z m11.90 -10.80 c1.15 -1.30 1.65 -5.20 0.85 -7.10 -0.90 -2.15 -1.85 -2.50 -6.95 -2.50 l-4.55 0 0 5.25 0 5.25 4.90 0 c4.15 0 5.10 -0.15 5.75 -0.90z"/>
  <path d="M44.65 15.45 c-0.35 -0.35 -0.65 -1.75 -0.65 -3.05 l0 -2.40 2.40 0 c1.30 0 2.65 0.25 3 0.60 0.80 0.80 0.75 3.65 -0.10 4.35 -1.10 0.95 -3.95 1.20 -4.65 0.50z"/>
  <path d="M64.30 36.20 c-0.70 -0.65 -0.80 -2.70 -0.80 -14.65 l0 -13.85 1.90 -1.75 c4.35 -4.15 3.60 -3.95 14.65 -3.95 11.75 0 11.45 -0.15 11.45 5 0 3.25 -0.05 3.50 -1.60 4.70 -1.60 1.25 -1.65 1.40 -1.65 5 0 3.45 -0.10 3.85 -1.45 5.25 l-1.50 1.55 2.50 0 c1.40 0 2.75 0.25 3.10 0.60 0.35 0.35 0.60 2 0.60 3.90 0 3.15 -0.10 3.35 -1.85 5.05 -4.40 4.15 -3.65 3.95 -14.70 3.95 -8.30 0 -10 -0.10 -10.65 -0.80z m25.25 -5.20 c0.75 -0.40 0.95 -1.05 0.95 -2.90 0 -1.35 -0.25 -2.65 -0.60 -3 -0.40 -0.40 -2.50 -0.60 -6.25 -0.60 l-5.65 0 0 -2 0 -2 3.70 0 c5.20 0 5.30 -0.05 5.30 -3.55 l0 -2.95 -4.55 0 -4.50 0 0.15 -1.85 0.15 -1.90 5.75 -0.15 c3.80 -0.10 5.85 -0.35 6.10 -0.75 0.20 -0.35 0.40 -1.45 0.40 -2.45 0 -3.55 0.45 -3.40 -10.55 -3.40 l-9.95 0 0 13.70 c0 10.50 0.15 13.80 0.65 13.95 1.20 0.50 17.90 0.35 18.90 -0.15z"/>
  <path d="M73.40 27.90 c-0.15 -0.35 -0.20 -5.35 -0.20 -11.15 l0.05 -10.50 7.15 -0.15 c6.10 -0.10 7.10 0 7.10 0.65 0 0.65 -1 0.75 -6.50 0.75 l-6.50 0 0 4.50 0 4.50 4.75 0 c3.90 0 4.75 0.15 4.75 0.75 0 0.60 -0.85 0.75 -4.75 0.75 l-4.80 0 0.15 4.65 0.15 4.60 6.40 0.15 c8.75 0.20 8.30 1.10 -0.60 1.10 -5.10 0 -7 -0.15 -7.15 -0.60z"/>
  <path d="M94.30 36.20 c-0.70 -0.65 -0.80 -2.70 -0.80 -14.65 l0 -13.90 2.15 -2 c3.75 -3.45 4.50 -3.80 7.85 -3.55 2.65 0.20 3.25 0.45 4.90 2.05 1.05 1 2.05 1.85 2.20 1.85 0.15 0 1.40 -0.90 2.70 -2 2.30 -1.90 2.60 -2 5.85 -2 5.75 0 5.35 -1.20 5.35 15.40 l0 14.40 -3.10 2.60 -3.15 2.60 -3.75 0 c-2.05 0 -4.05 -0.20 -4.45 -0.45 -0.35 -0.25 -0.75 -1.45 -0.90 -2.70 l-0.25 -2.25 -3.20 2.70 -3.20 2.70 -3.70 0 c-2.70 0 -3.95 -0.20 -4.50 -0.80z m12.75 -5.20 c0.85 -0.50 0.95 -1.10 0.95 -7.30 0 -4.20 0.20 -6.70 0.50 -6.60 0.25 0.10 1.95 1.90 3.75 4.10 3.10 3.70 3.25 4.05 3.25 6.50 0 1.45 0.25 2.85 0.60 3.20 0.65 0.65 5.80 0.80 6.80 0.20 0.45 -0.35 0.60 -3.45 0.50 -13.90 l-0.15 -13.45 -3.75 0 -3.75 0 -0.15 4.65 c-0.10 3.20 -0.30 4.60 -0.75 4.55 -0.35 0 -1.45 -1.05 -2.55 -2.35 -1.05 -1.30 -2.90 -3.40 -4.15 -4.70 -2.15 -2.35 -2.30 -2.40 -5.20 -2.40 l-2.95 0 0 13.70 c0 10.50 0.15 13.80 0.65 13.95 1.10 0.50 5.40 0.35 6.40 -0.15z"/>
  <path d="M103.20 27.85 c-0.10 -0.35 -0.15 -5.35 -0.10 -11.10 0.15 -8.80 0.25 -10.50 0.90 -10.50 0.35 0 3.85 3.55 7.75 7.90 l7 7.85 0.15 -8 c0.05 -4.75 0.30 -8 0.60 -8 0.30 0 0.50 4.25 0.50 11.25 0 7.15 -0.20 11.25 -0.50 11.25 -0.25 0 -0.50 -0.95 -0.50 -2.05 0 -1.85 -0.35 -2.50 -3.60 -6.15 -4.75 -5.25 -6.85 -7.60 -9.05 -10.05 l-1.80 -2 -0.05 10.15 c0 6.60 -0.20 10.10 -0.50 10.10 -0.30 0 -0.65 -0.30 -0.80 -0.65z"/>
  <path d="M140.65 36.45 c-0.40 -0.40 -0.65 -2.05 -0.65 -4.30 l0 -3.65 2 -1.40 c1.05 -0.75 1.95 -1.50 2 -1.65 0 -0.15 -0.50 -0.55 -1.15 -0.90 -2.05 -1.10 -2.85 -3.25 -2.85 -7.75 0 -5.15 1.05 -7.35 5 -10.55 4.45 -3.65 5.35 -3.90 13.55 -4.15 8.85 -0.25 8.95 -0.20 8.95 4.90 0 3.25 -0.05 3.45 -1.75 4.95 -2 1.75 -2.10 2.05 -0.85 2.05 1.15 0 2.85 1.75 3.55 3.65 0.95 2.45 0.70 8.25 -0.45 10.60 -0.95 2 -5.60 6.20 -8.50 7.80 -1.80 0.95 -18 1.30 -18.85 0.40z m23.65 -6.10 c2.70 -1.40 3.45 -3.10 3.45 -7.70 0 -6.20 -1.55 -7.75 -8.30 -8.60 -4 -0.55 -5.55 -1.50 -4.65 -2.95 0.45 -0.70 1.55 -0.90 6 -1.10 l5.45 -0.25 0.15 -1.95 c0.10 -1.10 0.05 -2.50 -0.15 -3.15 l-0.30 -1.25 -7.65 0.20 c-7.45 0.15 -7.70 0.20 -9.45 1.50 -1.45 1.15 -1.90 1.90 -2.35 4.20 -0.90 4.40 0.15 8.75 2.45 9.90 1.35 0.70 5.70 1.70 8.25 1.95 1.65 0.10 2.60 1.30 2.15 2.55 -0.25 0.65 -1.20 0.80 -5.95 0.80 -3.10 0 -6 0.25 -6.40 0.50 -1 0.65 -1 5.35 0 6.05 1.25 0.85 15.45 0.25 17.30 -0.70z"/>
  <path d="M149 28.05 c0 -0.25 2.70 -0.50 5.95 -0.60 7.45 -0.25 8.15 -0.70 7.95 -4.90 -0.20 -3.30 -0.50 -3.55 -6.65 -4.80 -5.90 -1.20 -6.25 -1.55 -6.25 -5.75 0 -5.40 1.10 -6.15 8.70 -5.90 3 0.10 4.55 0.35 4.70 0.80 0.15 0.45 -1.10 0.60 -5.10 0.60 -6.45 0 -7.30 0.50 -7.30 4.50 0 3.10 0.65 3.55 6.50 4.70 5.20 1.05 6.45 1.80 6.60 3.95 0.20 4.20 -0.05 5.60 -1.35 6.75 -1.20 1 -1.80 1.10 -7.55 1.10 -3.40 0 -6.20 -0.20 -6.20 -0.45z"/>
  <path d="M204.60 36.40 c-0.35 -0.35 -0.60 -2.05 -0.60 -4.20 l0 -3.65 2.50 -2.10 2.50 -2.10 0 -4.20 0 -4.15 -1.55 0 c-3 0 -3.45 -0.60 -3.45 -4.95 l0 -3.95 3.30 -2.55 3.35 -2.55 8.90 0 c10.80 0 10.95 0.05 10.95 5.10 l0 3.10 -2.75 2.55 -2.75 2.50 0 4.15 0 4.10 2.25 0 c2.65 0 3.25 0.80 3.25 4.45 0 3.35 -0.20 3.70 -3.60 6.55 l-3 2.50 -9.35 0 c-6.60 0 -9.55 -0.20 -9.95 -0.60z m23.80 -5.35 c0.45 -0.25 0.60 -1.30 0.50 -3.35 l-0.15 -2.95 -2.35 -0.15 -2.40 -0.15 0 -6.90 c0 -7.65 -0.05 -7.55 3.30 -7.55 l1.70 0 0 -3.25 0 -3.25 -9.35 0.10 -9.40 0.15 0 3 0 3 2.50 0.25 2.50 0.25 0.15 7.15 0.15 7.10 -2 0 c-3.25 0 -3.55 0.30 -3.55 3.30 0 2 0.20 2.80 0.90 3.15 1 0.60 16.55 0.70 17.50 0.10z"/>
  <path d="M213 28 c0 -0.30 1.35 -0.50 3 -0.50 l3 0 0 -10 0 -10 -3 0 c-2.35 0 -3 -0.15 -3 -0.75 0 -0.65 0.95 -0.75 6.50 -0.65 6.65 0.15 9.25 1 3.90 1.30 l-2.90 0.15 0 9.95 0 10 3 0 c1.65 0 3 0.20 3 0.50 0 0.30 -2.60 0.50 -6.75 0.50 -4.15 0 -6.75 -0.20 -6.75 -0.50z"/>
  <path d="M233.60 36.55 c-0.50 -0.30 -0.65 -3.45 -0.60 -14.85 l0 -14.45 1.90 -1.65 c3.95 -3.50 4.25 -3.60 11.45 -3.60 9.75 0 13.35 1 14.95 4.10 0.95 1.85 1.45 7.40 0.95 11.20 -0.30 2.70 -0.55 3.10 -3.30 5.80 -3.70 3.60 -4.80 4.35 -7.80 5.10 -2 0.50 -2.40 0.85 -2.75 2.15 -0.25 1.05 -1.45 2.45 -3.45 4.10 l-3.05 2.55 -3.80 0 c-2.15 0 -4.15 -0.20 -4.50 -0.45z m12.60 -5.35 c0.60 -0.25 0.80 -1.05 0.80 -3.65 0 -1.95 0.25 -3.60 0.60 -3.95 0.35 -0.35 2.15 -0.60 4.50 -0.60 4.50 0 6.25 -0.70 7.95 -3.05 0.95 -1.35 1.10 -2.20 1.10 -6.40 0.05 -5.35 -0.65 -7.40 -3 -8.90 -1.15 -0.80 -2.60 -0.90 -10.15 -0.90 l-8.75 0 -0.15 13.45 c-0.10 10.45 0.05 13.55 0.50 13.90 0.75 0.45 5.45 0.55 6.60 0.10z"/>
  <path d="M242.70 27.85 c-0.10 -0.35 -0.15 -5.35 -0.10 -11.10 l0.15 -10.50 4.65 -0.15 c5.25 -0.15 8.15 0.45 9.60 2 0.85 0.90 1 1.80 1 5.40 0 3.65 -0.15 4.50 -1 5.40 -1.25 1.35 -2.05 1.50 -8 1.80 l-4.75 0.20 -0.15 3.80 c-0.15 3.45 -0.75 4.85 -1.40 3.15z m13.10 -10 c0.95 -1.10 1.20 -2 1.20 -4.10 0 -5.30 -1.35 -6.25 -8.55 -6.25 l-4.45 0 0 6.05 0 6.05 5.30 -0.20 c5.10 -0.15 5.35 -0.25 6.50 -1.55z"/>
  <path d="M247.20 16.30 c-0.15 -0.35 -0.20 -1.90 -0.10 -3.35 l0.15 -2.70 2.50 -0.15 c2.85 -0.20 3.75 0.60 3.75 3.30 0 2.90 -0.70 3.60 -3.55 3.60 -1.65 0 -2.55 -0.25 -2.75 -0.70z"/>
  <path d="M264.55 36.30 c-0.40 -0.45 -0.55 -4.80 -0.45 -14.85 l0.15 -14.15 3.20 -2.70 3.20 -2.70 8.30 0.20 c10 0.30 12 0.85 13.65 4.05 0.80 1.60 1.05 3.05 1.05 6.35 0.05 6.35 -0.35 7.70 -3.05 10.35 -3.45 3.30 -6.10 5 -8.60 5.50 -2 0.40 -2.30 0.60 -2.50 2.05 -0.20 1.15 -1 2.25 -3.25 4.10 l-2.95 2.50 -4.10 0 c-2.85 0 -4.25 -0.20 -4.65 -0.70z m13.10 -5.40 c0.60 -0.50 0.85 -1.60 0.95 -4.15 l0.15 -3.50 4.75 -0.25 c7.70 -0.40 8.75 -1.55 8.75 -9.55 0 -9.10 -0.65 -9.60 -12.70 -9.85 -6.90 -0.15 -8.75 -0.05 -9.10 0.45 -0.25 0.40 -0.45 6.35 -0.45 13.30 0 10.75 0.10 12.70 0.80 13.35 0.95 1 5.65 1.10 6.85 0.20z"/>
  <path d="M274 17.25 l0 -11.25 5.25 0 c5.35 0 7.85 0.60 9.15 2.10 0.95 1.20 1.30 6.80 0.50 9.15 -0.90 2.65 -2.10 3.15 -8.50 3.35 l-5.40 0.15 0 3.90 c0 2.20 -0.20 3.85 -0.50 3.85 -0.30 0 -0.50 -4.10 -0.50 -11.25z m11.10 1.75 c2.40 -0.70 2.90 -1.65 2.90 -5.65 0 -5.10 -0.60 -5.55 -7.45 -5.75 l-5.55 -0.20 0 6.05 0 6.05 4.15 0 c2.25 0 4.95 -0.25 5.95 -0.50z"/>
  <path d="M278.50 13.50 l0 -3.50 2.45 0 c2.75 0 4.05 1.10 4.05 3.50 0 2.40 -1.30 3.50 -4.05 3.50 l-2.45 0 0 -3.50z"/>
  <path d="M329.60 36.55 c-0.50 -0.30 -0.65 -3.45 -0.60 -14.85 l0 -14.45 2.15 -1.90 c3.85 -3.45 4.05 -3.50 13.30 -3.25 9 0.20 10.40 0.55 12.20 3 1.25 1.65 1.75 6.60 0.90 8.95 -0.50 1.40 -0.45 1.70 0.45 2.30 2 1.40 2.50 3.30 2.50 9.25 0 3.10 -0.20 5.90 -0.40 6.15 -0.20 0.30 -1.60 1.60 -3.15 2.90 l-2.80 2.35 -4 0 c-2.40 0 -4.20 -0.25 -4.55 -0.60 -0.35 -0.35 -0.60 -1.85 -0.65 -3.35 -0.05 -1.55 -0.25 -3.35 -0.45 -4.05 -0.35 -1.05 -0.40 -0.95 -0.45 0.85 -0.05 1.90 -0.30 2.25 -3.10 4.60 l-3.05 2.55 -3.80 0 c-2.15 0 -4.15 -0.20 -4.50 -0.45z m12.60 -5.35 c0.65 -0.25 0.80 -1.10 0.80 -3.95 0 -5.15 0.05 -5.25 3.50 -5.25 4.50 0 4.50 0 4.50 4.55 0 4.60 0.35 4.95 4.65 4.95 3.80 0 4 -0.40 3.75 -6.70 -0.15 -4.70 -0.30 -5.40 -1.35 -6.50 -0.70 -0.70 -1.45 -1.30 -1.75 -1.30 -0.30 0 -0.90 -0.25 -1.30 -0.50 -0.60 -0.35 -0.55 -0.65 0.50 -1.75 1.65 -1.75 1.75 -6.50 0.20 -8.60 -1.65 -2.25 -3.90 -2.70 -12.65 -2.55 l-7.80 0.15 -0.15 13.45 c-0.10 10.45 0.05 13.55 0.50 13.90 0.75 0.45 5.45 0.55 6.60 0.10z"/>
  <path d="M338.75 27.90 c-0.15 -0.35 -0.20 -5.40 -0.15 -11.15 l0.15 -10.50 4.95 -0.15 c7.80 -0.20 9.30 0.85 9.30 6.55 0 1.90 -0.25 3.85 -0.50 4.35 -0.40 0.80 -0.25 1.05 0.85 1.60 0.75 0.35 1.65 1.20 2 1.90 0.70 1.40 0.90 8 0.20 8 -0.70 0 -1.05 -1.40 -1.05 -4.55 0 -4.15 -0.85 -4.65 -8.60 -4.90 l-5.90 -0.15 0 4.50 c0 4.10 -0.60 6.25 -1.25 4.50z m11.90 -10.80 c1.15 -1.30 1.65 -5.20 0.85 -7.10 -0.90 -2.15 -1.85 -2.50 -6.95 -2.50 l-4.55 0 0 5.25 0 5.25 4.90 0 c4.15 0 5.10 -0.15 5.75 -0.90z"/>
  <path d="M343.65 15.45 c-0.35 -0.35 -0.65 -1.75 -0.65 -3.05 l0 -2.40 2.40 0 c1.30 0 2.65 0.25 3 0.60 0.80 0.80 0.75 3.65 -0.10 4.35 -1.10 0.95 -3.95 1.20 -4.65 0.50z"/>
  <path d="M367.60 36.40 c-0.45 -0.45 -0.60 -3.45 -0.60 -10.50 l0 -9.90 -2.85 0 c-4.05 0 -4.35 -0.30 -4.55 -4.50 l-0.20 -3.60 2.65 -2.50 c1.50 -1.35 3.20 -2.70 3.85 -2.95 1.65 -0.65 21.95 -0.60 23.15 0.05 0.80 0.45 0.95 1.10 0.95 4.45 l0 3.95 -3.50 2.65 -3.50 2.70 0 7.60 0 7.65 -3.35 2.75 -3.35 2.75 -4.05 0 c-2.50 0 -4.30 -0.25 -4.65 -0.60z m13.40 -5.40 c0.60 -0.35 0.80 -2.35 1 -10.60 l0.25 -10.15 3.40 -0.15 3.40 -0.15 -0.15 -3.10 -0.15 -3.10 -11.25 0 -11.25 0 -0.15 3.15 -0.15 3.10 3.55 0 3.50 0 0 10.25 c0 9.20 0.10 10.25 0.90 10.70 1.10 0.65 6.10 0.70 7.10 0.05z"/>
  <path d="M377 18 l0 -10.45 -4.10 -0.15 c-2.45 -0.10 -4.10 -0.35 -4.05 -0.65 0.10 -0.30 3.50 -0.55 8.65 -0.65 7.35 -0.10 8.50 0 8.50 0.65 0 0.60 -0.75 0.75 -4 0.75 l-4 0 0 10.50 c0 6.65 -0.20 10.50 -0.50 10.50 -0.30 0 -0.50 -3.85 -0.50 -10.50z"/>
 </g>
</svg>