<?xml version="1.0" encoding="utf-8"?>
<!DOCTYPE svg PUBLIC "-//W3C//DTD SVG 1.0//EN" "http://www.w3.org/TR/2001/REC-SVG-20010904/DTD/svg10.dtd">
<svg version="1.0" xmlns="http://www.w3.org/2000/svg" width="412px" height="58px" viewBox="0 0 412 58" preserveAspectRatio="xMidYMid meet">
 <g fill="#000000">
  <path d="M0 29 l0 -29 206 0 206 0 0 29 0 29 -206 0 -206 0 0 -29z"/>
 </g>
 <g fill="#ffffff">
  <path d="M190.50 47.05 c-3.95 -0.85 -6.80 -3.25 -7.55 -6.40 -0.25 -1.05 -0.45 -6.65 -0.45 -12.40 l0 -10.55 1.90 -1.75 c3.90 -3.70 4.40 -3.95 8.55 -3.95 2.10 0 4.10 0.20 4.45 0.40 0.35 0.25 0.80 1.35 1 2.50 l0.35 2.05 3 -2.50 3 -2.45 3.85 0 c5.75 0 5.50 -0.65 5.30 13.45 -0.15 13.55 -0.05 13.15 -4.65 17.10 -4.70 3.95 -6.15 4.55 -11.95 4.75 -2.80 0.10 -5.85 0 -6.80 -0.25z m17.20 -6.05 c4.50 -1.35 5.30 -3.95 5.30 -17.20 0 -7.30 -0.15 -9.30 -0.70 -9.75 -0.45 -0.35 -2.05 -0.55 -4.15 -0.45 l-3.40 0.15 -0.25 10.15 c-0.30 11.30 -0.20 11.10 -3.80 11.10 -3.30 0 -3.40 -0.35 -3.70 -11.45 l-0.25 -9.80 -3.85 -0.15 -3.90 -0.15 0 11.55 c0 7.80 0.20 11.90 0.60 12.65 0.90 1.70 2.40 2.80 4.60 3.40 1.15 0.25 2.30 0.60 2.55 0.70 0.95 0.40 9 -0.15 10.95 -0.75z"/>
  <path d="M195.50 38.10 c-0.95 -0.45 -2 -1.40 -2.35 -2.10 -0.75 -1.50 -0.95 -20 -0.20 -20 0.25 0 0.55 4.15 0.65 9.45 0.20 10.90 0.25 11.15 4.60 12.05 3.50 0.70 7.40 -0.10 8.80 -1.85 0.90 -1.20 1 -2.05 1 -10.45 0 -5.80 0.20 -9.20 0.50 -9.20 0.30 0 0.50 3.65 0.50 9.90 0 9.65 -0.05 9.95 -1.10 11 -0.65 0.55 -1.80 1.25 -2.55 1.55 -2.20 0.85 -7.85 0.65 -9.85 -0.35z"/>
  <path d="M314.30 46.95 c-2.80 -0.70 -5.10 -2.25 -6.35 -4.25 -1 -1.65 -1.10 -2.40 -1.05 -9.35 0.05 -14.05 -0.40 -12.10 3.70 -15.95 5.35 -5.05 6.80 -5.60 14.40 -5.60 7.20 0.05 10 0.95 12.05 3.80 1.15 1.60 1.20 1.95 1.20 11.15 0 10 -0.20 11.45 -1.60 13.05 -1.70 1.85 -6.80 5.75 -8.60 6.50 -2.20 0.95 -11 1.35 -13.75 0.65z m16.55 -5.65 c3.15 -0.85 4.95 -2.10 5.65 -4 0.25 -0.80 0.50 -5.30 0.50 -10 0 -9.90 -0.40 -11.30 -3.75 -13 -3.05 -1.60 -12.05 -1.80 -15.40 -0.35 -3.05 1.30 -3.65 1.90 -4.30 4.35 -0.70 2.50 -0.70 15.85 -0.05 18.30 0.65 2.30 2.95 4.15 6 4.80 3.30 0.75 8.40 0.70 11.35 -0.10z"/>
  <path d="M319.50 38.10 c-2.60 -1.25 -3.10 -3.35 -2.90 -11.90 0.15 -7.60 0.35 -8.10 3.05 -9.50 1.80 -0.95 8.10 -1.05 10.55 -0.15 2.80 1 3.30 2.65 3.30 11.05 0 8.05 -0.35 9.20 -3 10.50 -2.40 1.15 -8.60 1.15 -11 0z m8.45 -0.65 c4.05 -0.85 4.30 -1.40 4.30 -9.65 0 -8 -0.35 -9.30 -2.95 -10.20 -2.80 -1.05 -7.40 -0.75 -9.35 0.55 l-1.70 1.15 -0.15 7.65 c-0.15 8.95 0.10 9.70 3.50 10.45 2.95 0.65 3.50 0.70 6.35 0.05z"/>
  <path d="M322.10 34.40 c-0.65 -0.65 -0.90 -12.10 -0.30 -13.60 0.25 -0.60 1.05 -0.80 3.25 -0.80 2.35 0 3 0.20 3.45 0.95 0.25 0.55 0.50 3.55 0.50 6.75 0 4.55 -0.15 5.90 -0.80 6.50 -0.95 0.95 -5.20 1.10 -6.10 0.20z"/>
  <path d="M13.60 46.40 c-0.45 -0.45 -0.60 -4.45 -0.60 -14.95 l0 -14.35 3.30 -2.55 3.35 -2.55 9.55 0 c5.25 0 9.90 0.20 10.30 0.50 0.50 0.30 0.80 1.60 0.90 3.95 l0.20 3.55 -1.90 1.85 -1.90 1.90 0.15 4.30 0.15 4.30 -3.10 2.55 c-1.70 1.45 -3.50 2.60 -4.05 2.60 -0.75 0 -0.95 0.35 -0.95 1.70 0 1.95 -0.75 2.90 -4.25 5.80 -2.45 1.95 -2.55 2 -6.50 2 -2.50 0 -4.30 -0.25 -4.65 -0.60z m13.30 -5.50 c0.35 -0.35 0.60 -2.20 0.60 -4.75 l0 -4.10 4.15 -0.15 4.10 -0.15 0.15 -2.65 c0.20 -3.70 -0.25 -4.10 -4.75 -4.10 l-3.70 0 0.15 -2.35 0.15 -2.40 5.65 -0.15 5.65 -0.15 -0.15 -3.10 -0.15 -3.10 -9.25 -0.15 c-8.25 -0.10 -9.30 -0.05 -9.85 0.75 -0.50 0.60 -0.65 4.10 -0.65 13.20 0 10.60 0.10 12.50 0.80 13.15 0.95 0.95 6.20 1.10 7.10 0.20z"/>
  <path d="M23 27.25 l0 -11.25 6.50 0 c5.45 0 6.50 0.10 6.50 0.75 0 0.65 -1 0.75 -6 0.75 l-6 0 0 5.25 0 5.25 4.50 0 c2.65 0 4.50 0.20 4.50 0.50 0 0.30 -1.85 0.50 -4.50 0.50 l-4.50 0 0 4.75 c0 2.85 -0.20 4.75 -0.50 4.75 -0.30 0 -0.50 -4.10 -0.50 -11.25z"/>
  <path d="M42 45.70 c-0.30 -0.70 -0.50 -7.15 -0.50 -14.60 l0 -13.30 2.90 -2.65 c1.55 -1.50 3.35 -2.80 3.95 -2.95 0.60 -0.15 4.75 -0.20 9.25 -0.10 9.10 0.15 10.35 0.50 12.25 3.35 0.90 1.35 1.15 2.40 1.15 4.90 0 1.75 -0.25 3.65 -0.50 4.20 -0.45 0.75 -0.25 1.20 1.10 2.40 l1.65 1.45 0.15 6.70 0.15 6.65 -3.15 2.65 -3.15 2.60 -4 0 c-2.50 0 -4.30 -0.25 -4.65 -0.60 -0.35 -0.35 -0.60 -2.15 -0.65 -4.35 -0.05 -2.95 -0.15 -3.45 -0.45 -2.20 -0.45 2 -1.10 2.80 -4.15 5.25 -2.40 1.85 -2.50 1.90 -6.65 1.90 -4.05 0 -4.25 -0.05 -4.70 -1.30z m13.35 -4.60 c0.35 -0.25 0.65 -2 0.75 -4.60 l0.15 -4.25 3.75 0 3.75 0 0.15 4 c0.15 4.80 0.55 5.25 4.65 5.25 3.95 0 4.15 -0.35 3.85 -6.75 -0.20 -4.65 -0.35 -5.40 -1.40 -6.50 -0.65 -0.70 -1.40 -1.25 -1.70 -1.25 -0.30 0 -0.90 -0.25 -1.30 -0.50 -0.60 -0.35 -0.55 -0.65 0.50 -1.75 1.65 -1.75 1.75 -6.50 0.20 -8.60 -1.65 -2.25 -3.90 -2.70 -12.65 -2.55 l-7.80 0.15 -0.15 13.45 c-0.10 10.45 0.05 13.55 0.50 13.90 0.80 0.50 5.95 0.50 6.75 0z"/>
  <path d="M51.75 37.90 c-0.15 -0.35 -0.20 -5.40 -0.15 -11.15 l0.15 -10.50 5.90 0 c5.90 0 5.95 0 7.15 1.40 1 1.20 1.20 1.95 1.20 4.90 0 1.95 -0.25 3.95 -0.50 4.45 -0.40 0.80 -0.25 1.05 0.85 1.60 0.75 0.35 1.65 1.20 2 1.90 0.70 1.40 0.90 8 0.20 8 -0.70 0 -1.05 -1.40 -1.05 -4.55 0 -4.20 -0.85 -4.65 -8.60 -4.80 l-5.90 -0.10 0 4.45 c0 4 -0.60 6.10 -1.25 4.40z m12.05 -10.95 c0.70 -0.80 0.95 -1.80 0.95 -4.30 0 -4.60 -0.75 -5.15 -7.05 -5.15 l-4.70 0 0 5.25 0 5.25 4.90 0 c4.40 0 5.05 -0.10 5.90 -1.05z"/>
  <path d="M56.65 25.45 c-0.35 -0.35 -0.65 -1.75 -0.65 -3.05 l0 -2.40 2.40 0 c1.30 0 2.65 0.25 3 0.60 0.80 0.80 0.75 3.65 -0.10 4.35 -1.10 0.95 -3.95 1.20 -4.65 0.50z"/>
  <path d="M76.10 46.40 c-0.65 -0.65 -0.90 -28.20 -0.20 -29.20 0.20 -0.30 1.65 -1.55 3.25 -2.85 l2.90 -2.35 10.10 0 c7.25 0 10.30 0.15 10.75 0.60 0.35 0.35 0.60 2.05 0.60 4.20 0 3.45 -0.05 3.65 -1.65 5.05 -1.60 1.40 -1.65 1.55 -1.45 4.70 0.20 3.15 0.10 3.40 -1.40 5.10 l-1.60 1.85 2.45 0 c1.35 0 2.70 0.25 3.05 0.60 0.65 0.65 0.85 6.80 0.20 7.70 -0.20 0.30 -1.55 1.60 -3.05 2.90 l-2.75 2.30 -10.30 0 c-7.35 0 -10.45 -0.15 -10.90 -0.60z m25.80 -5.50 c0.35 -0.35 0.60 -1.65 0.60 -2.90 0 -1.25 -0.25 -2.55 -0.60 -2.90 -0.40 -0.40 -2.50 -0.60 -6.25 -0.60 l-5.65 0 0 -2 0 -2 3.70 0 c5.20 0 5.30 -0.05 5.30 -3.55 l0 -2.95 -4.55 0 -4.50 0 0.15 -1.85 0.15 -1.90 5.75 -0.15 c3.80 -0.10 5.85 -0.35 6.10 -0.75 0.20 -0.35 0.40 -1.45 0.40 -2.45 0 -3.55 0.45 -3.40 -10.55 -3.40 l-9.95 0 0 13.70 c0 10.50 0.15 13.80 0.65 13.95 0.30 0.15 4.65 0.30 9.60 0.30 6.40 0.05 9.20 -0.10 9.65 -0.55z"/>
  <path d="M85.35 38.15 c-0.40 -0.40 -0.45 -20.35 -0.05 -21.40 0.45 -1.10 14.20 -1.10 14.20 0 0 0.65 -1.05 0.75 -6.50 0.75 l-6.50 0 0 4.50 0 4.50 4.75 0 c3.90 0 4.75 0.15 4.75 0.75 0 0.60 -0.85 0.75 -4.75 0.75 l-4.80 0 0.15 4.65 0.15 4.60 6.40 0.15 c8.75 0.20 8.30 1.10 -0.55 1.10 -3.80 0 -7.10 -0.15 -7.25 -0.35z"/>
  <path d="M106.10 46.40 c-0.45 -0.45 -0.60 -4.40 -0.60 -14.70 l0 -14.10 3.15 -2.80 c3 -2.70 3.20 -2.80 6 -2.80 3.25 0 5.30 0.85 6.55 2.70 0.45 0.75 1 1.30 1.20 1.30 0.20 0 1.45 -0.90 2.80 -2 2.35 -1.95 2.50 -2 6.35 -2 5.70 0 5.45 -0.70 5.45 15.55 0 15 0.30 13.70 -4.25 17.45 -2.45 1.95 -2.55 2 -6.60 2 -4.50 0 -4.70 -0.15 -5.15 -3.15 l-0.25 -1.85 -3.10 2.50 -3.10 2.50 -3.90 0 c-2.40 0 -4.20 -0.25 -4.55 -0.60z m12.95 -5.40 c0.85 -0.50 0.95 -1.10 0.95 -7.30 0 -4.20 0.20 -6.70 0.50 -6.60 0.25 0.10 1.95 1.90 3.75 4.10 3.20 3.80 3.25 3.95 3.25 6.80 0 2.20 0.20 2.95 0.80 3.20 1.15 0.45 5.85 0.35 6.60 -0.10 0.45 -0.35 0.60 -3.45 0.50 -13.90 l-0.15 -13.45 -3.75 0 -3.75 0 -0.25 4.85 c-0.15 3.10 -0.45 4.75 -0.75 4.50 -0.25 -0.20 -2.20 -2.25 -4.25 -4.60 -2.05 -2.35 -3.95 -4.40 -4.25 -4.60 -0.25 -0.20 -1.80 -0.40 -3.35 -0.40 l-2.90 0 0 13.70 c0 10.50 0.15 13.80 0.65 13.95 1.10 0.50 5.40 0.35 6.40 -0.15z"/>
  <path d="M115.20 37.85 c-0.10 -0.35 -0.15 -5.35 -0.10 -11.10 0.15 -8.80 0.25 -10.50 0.90 -10.50 0.35 0 3.85 3.55 7.75 7.90 l7 7.85 0.15 -8 c0.05 -4.75 0.30 -8 0.60 -8 0.30 0 0.50 4.25 0.50 11.25 0 7.15 -0.20 11.25 -0.50 11.25 -0.25 0 -0.50 -0.95 -0.50 -2.05 0 -1.85 -0.35 -2.50 -3.60 -6.15 -4.75 -5.25 -6.85 -7.60 -9.05 -10.05 l-1.80 -2 -0.05 10.15 c0 6.60 -0.20 10.10 -0.50 10.10 -0.30 0 -0.65 -0.30 -0.80 -0.65z"/>
  <path d="M152.65 46.45 c-0.40 -0.40 -0.65 -2.05 -0.65 -4.25 0 -3.60 0 -3.65 1.85 -5.15 l1.90 -1.55 -1.35 -1.15 c-2 -1.70 -2.40 -2.90 -2.40 -7.60 0 -5.20 0.70 -7 3.80 -9.50 1.20 -1 2.45 -2.10 2.85 -2.45 2.05 -2.05 4 -2.50 11.75 -2.70 5.55 -0.15 7.80 -0.05 8.35 0.40 0.55 0.45 0.75 1.65 0.75 4.20 0 3.35 -0.10 3.70 -1.50 5.05 -1.65 1.60 -1.90 2.25 -0.80 2.25 0.40 0 1.40 0.85 2.25 1.85 1.45 1.80 1.55 2.10 1.55 6.30 0 5.50 -0.65 6.95 -4.40 10.25 -4.90 4.25 -5.20 4.35 -14.85 4.50 -6.40 0.15 -8.65 0 -9.10 -0.45z m23.65 -6.10 c2.70 -1.40 3.45 -3.10 3.45 -7.70 0 -6.20 -1.55 -7.75 -8.30 -8.60 -4 -0.55 -5.55 -1.50 -4.65 -2.95 0.45 -0.70 1.55 -0.90 6 -1.10 l5.45 -0.25 0.15 -1.95 c0.10 -1.10 0.05 -2.50 -0.15 -3.15 l-0.30 -1.25 -7.65 0.20 c-7.45 0.15 -7.70 0.20 -9.45 1.50 -1.45 1.15 -1.90 1.90 -2.35 4.20 -0.90 4.40 0.15 8.75 2.45 9.90 1.35 0.70 5.70 1.70 8.25 1.95 1.65 0.10 2.60 1.30 2.15 2.55 -0.25 0.65 -1.20 0.80 -5.95 0.80 -3.10 0 -6 0.25 -6.40 0.50 -0.50 0.30 -0.75 1.30 -0.75 3 0 1.70 0.25 2.70 0.75 3.05 1.25 0.85 15.45 0.30 17.30 -0.70z"/>
  <path d="M161 38.05 c0 -0.25 2.70 -0.50 5.95 -0.60 7.45 -0.25 8.15 -0.70 7.95 -4.90 -0.20 -3.30 -0.50 -3.55 -6.65 -4.80 -5.90 -1.20 -6.25 -1.55 -6.25 -5.75 0 -5.40 1.10 -6.15 8.70 -5.90 3 0.10 4.55 0.35 4.70 0.80 0.15 0.45 -1.10 0.60 -5.10 0.60 -6.45 0 -7.30 0.50 -7.30 4.50 0 3.10 0.65 3.55 6.50 4.70 5.40 1.05 6.50 1.75 6.60 4.20 0.15 4.35 -0.05 5.35 -1.35 6.50 -1.20 1 -1.80 1.10 -7.55 1.10 -3.40 0 -6.20 -0.20 -6.20 -0.45z"/>
  <path d="M216.65 46.65 c-0.45 -0.15 -0.65 -1.50 -0.65 -4.30 l0.05 -4.10 2.45 -1.95 2.50 -1.95 0 -4.20 0 -4.15 -1.90 0 c-2.70 0 -3.10 -0.65 -3.10 -5 l0 -3.80 3.10 -2.60 3.15 -2.60 9.25 0 c5.10 0 9.60 0.25 10 0.50 0.50 0.30 0.80 1.60 0.90 4.15 l0.20 3.70 -2.80 2.40 -2.85 2.40 0.15 4.05 0.15 4.05 1.90 0 c2.60 0 3.35 1.15 3.35 5 0 2.85 -0.10 3.15 -1.85 4.80 -4.40 4.15 -3.75 3.95 -14.10 3.90 -5.10 0 -9.60 -0.15 -9.90 -0.30z m23.75 -5.60 c0.45 -0.25 0.60 -1.30 0.50 -3.35 l-0.15 -2.95 -2.35 -0.15 -2.40 -0.15 0 -6.90 c0 -7.65 -0.05 -7.55 3.30 -7.55 l1.70 0 0 -3.25 0 -3.25 -9.35 0.10 -9.40 0.15 0 3 0 3 2.50 0.25 2.50 0.25 0.15 7.15 0.15 7.10 -2 0 c-3.25 0 -3.55 0.30 -3.55 3.30 0 2 0.20 2.80 0.90 3.15 1 0.60 16.55 0.70 17.50 0.10z"/>
  <path d="M225 38 c0 -0.30 1.35 -0.50 3 -0.50 l3 0 0 -10 0 -10 -3 0 c-2.35 0 -3 -0.15 -3 -0.75 0 -0.65 0.95 -0.75 6.50 -0.65 6.70 0.15 9.25 1.05 3.75 1.30 l-3 0.15 0.15 9.95 0.15 10 2.95 0 c1.65 0 3 0.20 3 0.50 0 0.30 -2.60 0.50 -6.75 0.50 -4.15 0 -6.75 -0.20 -6.75 -0.50z"/>
  <path d="M245 45.70 c-0.55 -1.35 -0.70 -26.60 -0.20 -27.90 0.15 -0.45 1.65 -1.95 3.30 -3.30 l3 -2.50 7.60 0 c9.35 0 12.10 0.65 14.15 3.35 1.35 1.75 1.40 2.05 1.40 7.90 0 5.60 -0.10 6.20 -1.20 7.80 -1.85 2.70 -6.90 6.35 -9.90 7.25 -2.25 0.65 -2.65 0.95 -2.65 1.95 0 0.80 -0.95 2.05 -3.10 3.95 l-3.15 2.80 -4.40 0 c-4.25 0 -4.40 -0.05 -4.85 -1.30z m13.20 -4.50 c0.60 -0.25 0.80 -1.05 0.80 -3.65 0 -1.95 0.25 -3.60 0.60 -3.95 0.35 -0.35 2.15 -0.60 4.50 -0.60 4.50 0 6.25 -0.70 7.95 -3.10 1 -1.40 1.15 -2.20 1.15 -6.35 0 -5.35 -0.75 -7.40 -3.05 -8.90 -1.15 -0.80 -2.60 -0.90 -10.15 -0.90 l-8.75 0 -0.15 13.45 c-0.10 10.45 0.05 13.55 0.50 13.90 0.75 0.45 5.45 0.55 6.60 0.10z"/>
  <path d="M254.70 37.85 c-0.10 -0.35 -0.15 -5.35 -0.10 -11.10 l0.15 -10.50 4.65 -0.15 c5.25 -0.15 8.15 0.45 9.60 2 0.85 0.90 1 1.75 1 5.35 -0.05 6.30 -1 7.10 -8.85 7.45 l-5.15 0.25 0 3.65 c0 2.20 -0.20 3.70 -0.50 3.70 -0.30 0 -0.65 -0.30 -0.80 -0.65z m13.15 -10.05 c0.90 -1.05 1.15 -1.95 1.15 -4.05 0 -5.30 -1.25 -6.25 -8.25 -6.25 l-4.75 0 0 6.05 0 6.10 5.35 -0.25 c5.05 -0.25 5.40 -0.30 6.50 -1.60z"/>
  <path d="M259.20 26.30 c-0.15 -0.35 -0.20 -1.90 -0.10 -3.35 l0.15 -2.70 2.50 -0.15 c2.85 -0.20 3.75 0.60 3.75 3.30 0 2.90 -0.70 3.60 -3.55 3.60 -1.65 0 -2.55 -0.25 -2.75 -0.70z"/>
  <path d="M276.60 46.40 c-0.45 -0.45 -0.60 -4.45 -0.60 -14.95 l0 -14.35 3.30 -2.55 3.35 -2.55 7.40 0 c8.40 0 11.45 0.60 13.50 2.60 2.25 2.30 3.15 8.75 1.85 13.80 -0.95 3.70 -7 9.10 -11.25 10 -1.50 0.30 -1.90 0.65 -2.25 1.95 -0.25 1 -1.45 2.40 -3.50 4.10 l-3.15 2.55 -4 0 c-2.50 0 -4.30 -0.25 -4.65 -0.60z m13.30 -5.55 c0.30 -0.35 0.60 -2.20 0.70 -4.10 l0.15 -3.50 4.75 -0.25 c7.70 -0.40 8.75 -1.55 8.75 -9.55 0 -9.10 -0.65 -9.60 -12.70 -9.85 -6.90 -0.15 -8.75 -0.05 -9.10 0.45 -0.25 0.40 -0.45 6.35 -0.45 13.30 0 10.75 0.10 12.70 0.80 13.35 1 1 6.30 1.10 7.10 0.15z"/>
  <path d="M286 27.25 l0 -11.25 5.25 0 c5.35 0 7.85 0.60 9.15 2.10 0.95 1.20 1.30 6.80 0.50 9.15 -0.90 2.75 -2.50 3.40 -8.65 3.60 l-5 0.15 -0.15 3.75 c-0.10 2.05 -0.35 3.75 -0.60 3.75 -0.30 0 -0.50 -4.40 -0.50 -11.25z m13.10 0.80 c1.30 -1.65 1.30 -7.45 -0.05 -9.10 -0.90 -1.10 -1.40 -1.20 -6.50 -1.35 l-5.55 -0.20 0 6.10 0 6.15 5.60 -0.25 c5.05 -0.20 5.65 -0.35 6.50 -1.35z"/>
  <path d="M290.50 23.50 l0 -3.50 2.45 0 c2.75 0 4.05 1.10 4.05 3.50 0 2.40 -1.30 3.50 -4.05 3.50 l-2.45 0 0 -3.50z"/>
  <path d="M341 45.70 c-0.30 -0.70 -0.50 -7.15 -0.50 -14.60 l0 -13.30 2.90 -2.65 c1.55 -1.50 3.30 -2.80 3.90 -2.95 0.55 -0.15 4.75 -0.20 9.25 -0.10 9.15 0.15 10.40 0.50 12.30 3.35 0.90 1.35 1.15 2.40 1.15 4.90 0 1.75 -0.25 3.65 -0.50 4.20 -0.45 0.75 -0.25 1.20 1.10 2.40 l1.65 1.45 0.15 6.70 0.15 6.65 -3.15 2.65 -3.15 2.60 -4 0 c-2.50 0 -4.30 -0.25 -4.65 -0.60 -0.35 -0.35 -0.65 -1.75 -0.65 -3.10 -0.05 -1.40 -0.25 -3.20 -0.45 -4.05 -0.40 -1.50 -0.40 -1.45 -0.35 0.35 0.05 2.10 -0.45 2.80 -3.80 5.50 -2.40 1.85 -2.50 1.90 -6.65 1.90 -4.05 0 -4.25 -0.05 -4.70 -1.30z m13.20 -4.50 c0.65 -0.25 0.80 -1.10 0.80 -3.95 0 -5.15 0.05 -5.25 3.50 -5.25 4.50 0 4.50 0 4.50 4.55 0 4.60 0.35 4.95 4.65 4.95 3.80 0 4.05 -0.40 3.75 -6.75 -0.20 -4.65 -0.35 -5.40 -1.40 -6.50 -0.65 -0.70 -1.40 -1.25 -1.70 -1.25 -0.30 0 -0.90 -0.25 -1.30 -0.50 -0.60 -0.35 -0.55 -0.65 0.50 -1.75 1.65 -1.75 1.75 -6.50 0.20 -8.60 -1.65 -2.25 -3.90 -2.70 -12.65 -2.55 l-7.80 0.15 -0.15 13.45 c-0.10 10.45 0.05 13.55 0.50 13.90 0.75 0.45 5.45 0.55 6.60 0.10z"/>
  <path d="M350.75 37.90 c-0.15 -0.35 -0.20 -5.40 -0.15 -11.15 l0.15 -10.50 4.95 -0.15 c7.80 -0.20 9.30 0.85 9.30 6.55 0 1.90 -0.25 3.85 -0.50 4.35 -0.40 0.80 -0.25 1.05 0.85 1.60 0.75 0.35 1.65 1.20 2 1.90 0.70 1.40 0.90 8 0.20 8 -0.70 0 -1.05 -1.40 -1.05 -4.55 0 -4.15 -0.85 -4.65 -8.60 -4.90 l-5.90 -0.15 0 4.50 c0 4.10 -0.60 6.25 -1.25 4.50z m11.90 -10.80 c1.15 -1.30 1.65 -5.20 0.85 -7.10 -0.90 -2.15 -1.85 -2.50 -6.95 -2.50 l-4.55 0 0 5.25 0 5.25 4.90 0 c4.15 0 5.10 -0.15 5.75 -0.90z"/>
  <path d="M355.65 25.45 c-0.35 -0.35 -0.65 -1.75 -0.65 -3.05 l0 -2.40 2.40 0 c1.30 0 2.65 0.25 3 0.60 0.80 0.80 0.75 3.65 -0.10 4.35 -1.10 0.95 -3.95 1.20 -4.65 0.50z"/>
  <path d="M379.60 46.40 c-0.45 -0.45 -0.60 -3.45 -0.60 -10.50 l0 -9.90 -2.95 0 c-4 0 -4.55 -0.60 -4.55 -4.95 0 -3.20 0.05 -3.40 1.90 -5.10 4.40 -4.20 3.45 -3.95 16.05 -3.95 8.15 0 11.50 0.15 11.95 0.60 0.35 0.35 0.60 2.10 0.60 4.40 l0 3.80 -2.10 1.75 c-1.20 1 -2.75 2.20 -3.50 2.65 l-1.40 0.90 0 7.65 0 7.65 -3.20 2.80 -3.15 2.80 -4.25 0 c-2.60 0 -4.45 -0.25 -4.80 -0.60z m13.40 -5.40 c0.60 -0.35 0.80 -2.35 1 -10.60 l0.25 -10.15 3.40 -0.15 3.40 -0.15 -0.15 -3.10 -0.15 -3.10 -11.25 0 -11.25 0 -0.15 3.15 -0.15 3.10 3.55 0 3.50 0 0 10.25 c0 9.20 0.10 10.25 0.90 10.70 1.10 0.65 6.10 0.70 7.10 0.05z"/>
  <path d="M389 28 l0 -10.45 -4.10 -0.15 c-2.45 -0.10 -4.10 -0.35 -4.05 -0.65 0.10 -0.30 3.50 -0.55 8.65 -0.65 7.35 -0.10 8.50 0 8.50 0.65 0 0.60 -0.75 0.75 -4 0.75 l-4 0 0 10.50 c0 6.65 -0.20 10.50 -0.50 10.50 -0.30 0 -0.50 -3.85 -0.50 -10.50z"/>
 </g>
</svg>