<svg xmlns="http://www.w3.org/2000/svg" xmlns:xlink="http://www.w3.org/1999/xlink" width="500" zoomAndPan="magnify" viewBox="0 0 375 74.999997" height="100" preserveAspectRatio="xMidYMid meet" version="1.0"><defs><g/></defs><path stroke-linecap="butt" transform="matrix(0.75, 0, 0, 0.75, 2.450005, 24.500007)" fill="none" stroke-linejoin="miter" d="M 28.795829 -11.00001 C 31.769788 -11.00001 34.676038 -10.567718 37.519788 -9.697926 C 40.373955 -8.828135 42.488539 -7.973968 43.868747 -7.12501 L 45.868747 -5.791676 L 40.790622 4.197908 C 40.38958 3.937491 39.832289 3.59895 39.113539 3.177075 C 38.410414 2.749991 37.082288 2.187491 35.129163 1.484366 C 33.176038 0.765616 31.353121 0.406241 29.660413 0.406241 C 27.577079 0.406241 25.962496 0.854158 24.827079 1.744783 C 23.696871 2.6302 23.134371 3.833325 23.134371 5.338533 C 23.134371 6.09895 23.399996 6.796867 23.931246 7.437492 C 24.462496 8.078117 25.373954 8.765617 26.665621 9.5052 C 27.957288 10.234367 29.087496 10.8177 30.066663 11.265617 C 31.040621 11.708325 32.551038 12.374992 34.587497 13.265617 C 38.149997 14.781242 41.181247 16.843742 43.686456 19.447909 C 46.202081 22.041659 47.462498 24.984368 47.462498 28.270827 C 47.462498 31.427077 46.894789 34.182285 45.754164 36.536452 C 44.623956 38.890619 43.066664 40.734369 41.082289 42.072911 C 39.10833 43.406245 36.92083 44.39062 34.524997 45.031245 C 32.129163 45.67187 29.530204 45.994786 26.728121 45.994786 C 24.332287 45.994786 21.978121 45.749995 19.66562 45.260411 C 17.35312 44.770828 15.420828 44.166661 13.858328 43.437495 C 12.306245 42.697911 10.905203 41.979161 9.655203 41.270828 C 8.420828 40.557286 7.509369 39.953119 6.926036 39.468744 L 6.061453 38.734369 L 12.327078 28.203118 C 12.858328 28.651035 13.592703 29.218743 14.524995 29.911452 C 15.457287 30.598952 17.113537 31.520827 19.488537 32.682285 C 21.873954 33.828119 23.978121 34.406244 25.801038 34.406244 C 31.087496 34.406244 33.728121 32.60416 33.728121 28.999993 C 33.728121 28.244785 33.535413 27.54166 33.160413 26.901035 C 32.780205 26.26041 32.113538 25.624993 31.155205 24.984368 C 30.20208 24.333326 29.353121 23.817701 28.618746 23.437493 C 27.889579 23.057285 26.691663 22.479159 25.019787 21.713534 C 23.358329 20.932284 22.129162 20.338534 21.327079 19.937493 C 17.993745 18.286451 15.420828 16.234367 13.597912 13.770825 C 11.774995 11.307284 10.863536 8.656242 10.863536 5.812491 C 10.863536 0.874991 12.686453 -3.161468 16.332287 -6.296885 C 19.97812 -9.432301 24.129162 -11.00001 28.795829 -11.00001 Z M 56.39479 1.010408 L 56.39479 -9.989593 L 95.045835 -9.989593 L 95.045835 1.010408 L 81.99375 1.010408 L 81.99375 44.999995 L 69.462499 44.999995 L 69.462499 1.010408 Z M 134.051046 -9.989593 L 156.248965 44.999995 L 142.785422 44.999995 L 138.717713 33.999994 L 117.790628 33.999994 L 113.72292 44.999995 L 100.24896 44.999995 L 122.446879 -9.989593 Z M 134.457296 22.994785 L 128.321879 6.999992 L 128.191671 6.999992 L 122.056254 22.994785 Z M 185.176051 -11.00001 C 188.150009 -11.00001 191.056259 -10.567718 193.90001 -9.697926 C 196.754176 -8.828135 198.86876 -7.973968 200.24376 -7.12501 L 202.248969 -5.791676 L 197.170843 4.197908 C 196.769801 3.937491 196.207301 3.59895 195.49376 3.177075 C 194.785426 2.749991 193.457301 2.187491 191.504176 1.484366 C 189.551051 0.765616 187.728134 0.406241 186.035426 0.406241 C 183.952092 0.406241 182.342717 0.854158 181.202092 1.744783 C 180.077092 2.6302 179.509383 3.833325 179.509383 5.338533 C 179.509383 6.09895 179.775008 6.796867 180.311467 7.437492 C 180.842717 8.078117 181.754175 8.765617 183.045842 9.5052 C 184.3323 10.234367 185.467717 10.8177 186.446884 11.265617 C 187.420842 11.708325 188.931259 12.374992 190.967718 13.265617 C 194.52501 14.781242 197.561468 16.843742 200.066677 19.447909 C 202.582302 22.041659 203.842719 24.984368 203.842719 28.270827 C 203.842719 31.427077 203.269802 34.182285 202.134385 36.536452 C 201.004177 38.890619 199.446885 40.734369 197.46251 42.072911 C 195.488551 43.406245 193.301051 44.39062 190.905218 45.031245 C 188.504176 45.67187 185.905217 45.994786 183.108342 45.994786 C 180.712508 45.994786 178.358342 45.749995 176.045841 45.260411 C 173.733341 44.770828 171.795841 44.166661 170.233341 43.437495 C 168.681258 42.697911 167.285424 41.979161 166.035424 41.270828 C 164.801049 40.557286 163.88959 39.953119 163.301049 39.468744 L 162.441674 38.734369 L 168.707299 28.203118 C 169.238549 28.651035 169.967716 29.218743 170.900008 29.911452 C 171.837508 30.598952 173.48855 31.520827 175.868758 32.682285 C 178.254175 33.828119 180.358342 34.406244 182.181259 34.406244 C 187.462509 34.406244 190.108343 32.60416 190.108343 28.999993 C 190.108343 28.244785 189.915634 27.54166 189.535426 26.901035 C 189.155218 26.26041 188.488551 25.624993 187.535426 24.984368 C 186.582301 24.333326 185.733342 23.817701 184.993759 23.437493 C 184.2698 23.057285 183.071884 22.479159 181.400009 21.713534 C 179.73855 20.932284 178.509383 20.338534 177.7073 19.937493 C 174.373966 18.286451 171.795841 16.234367 169.972924 13.770825 C 168.150007 11.307284 167.238549 8.656242 167.238549 5.812491 C 167.238549 0.874991 169.061466 -3.161468 172.7073 -6.296885 C 176.353133 -9.432301 180.509383 -11.00001 185.176051 -11.00001 Z M 228.769804 22.932285 L 228.769804 44.999995 L 216.238553 44.999995 L 216.238553 -9.989593 L 228.769804 -9.989593 L 228.769804 11.932284 L 246.493764 11.932284 L 246.493764 -9.989593 L 259.025015 -9.989593 L 259.025015 44.999995 L 246.493764 44.999995 L 246.493764 22.932285 Z M 273.566683 -9.989593 L 289.498976 -9.989593 C 297.134393 -9.989593 303.665644 -7.380218 309.092727 -2.161468 C 314.519811 3.057283 317.228145 9.59895 317.228145 17.463534 C 317.228145 25.374993 314.530228 31.942702 309.123977 37.171869 C 303.722935 42.390619 297.181268 44.999995 289.498976 44.999995 L 273.566683 44.999995 Z M 286.097934 33.802077 L 288.035434 33.802077 C 292.603143 33.802077 296.337518 32.26041 299.248977 29.182285 C 302.165643 26.088535 303.64481 22.203118 303.691685 17.531242 C 303.691685 12.864575 302.233352 8.979158 299.327102 5.874991 C 296.420851 2.760408 292.655226 1.203116 288.035434 1.203116 L 286.097934 1.203116 Z M 329.290646 -9.989593 L 348.952106 -9.989593 C 354.243773 -9.989593 358.556273 -8.583343 361.889607 -5.760426 C 365.217732 -2.937509 366.884399 1.093741 366.884399 6.333325 C 366.884399 10.3802 365.868774 13.770825 363.842732 16.505201 C 361.821898 19.239576 359.082315 21.156243 355.623981 22.265618 L 374.551066 44.999995 L 358.618773 44.999995 L 341.821897 23.276035 L 341.821897 44.999995 L 329.290646 44.999995 Z M 341.821897 14.406242 L 343.285438 14.406242 C 344.43648 14.406242 345.415647 14.3802 346.21773 14.338534 C 347.019814 14.296867 347.931272 14.145825 348.952106 13.885409 C 349.972939 13.614575 350.790647 13.234367 351.410439 12.744784 C 352.035439 12.244784 352.571898 11.531242 353.019814 10.593742 C 353.462523 9.66145 353.686481 8.53645 353.686481 7.208325 C 353.686481 5.874991 353.462523 4.744783 353.019814 3.807283 C 352.571898 2.874991 352.035439 2.166658 351.410439 1.677074 C 350.790647 1.187491 349.972939 0.807283 348.952106 0.536449 C 347.931272 0.265616 347.019814 0.109366 346.21773 0.0676993 C 345.415647 0.0208243 344.43648 -0.00000901222 343.285438 -0.00000901222 L 341.821897 -0.00000901222 Z M 381.077108 17.463534 C 381.077108 9.510408 383.79065 2.781241 389.212526 -2.734384 C 394.639609 -8.244801 401.17086 -11.00001 408.806277 -11.00001 C 416.498986 -11.00001 423.030237 -8.255218 428.405237 -2.765634 C 433.785446 2.72395 436.472946 9.468742 436.472946 17.463534 C 436.472946 25.515618 433.827112 32.286452 428.535445 37.776036 C 423.248987 43.255203 416.676069 45.994786 408.806277 45.994786 C 400.769818 45.994786 394.134401 43.276036 388.905234 37.838536 C 383.686483 32.390619 381.077108 25.598951 381.077108 17.463534 Z M 394.618776 17.463534 C 394.618776 20.359368 395.061484 22.994785 395.952109 25.374993 C 396.842734 27.749993 398.394818 29.76041 400.60836 31.411452 C 402.832318 33.046869 405.566694 33.869785 408.806277 33.869785 C 413.472944 33.869785 416.993778 32.265619 419.368778 29.067702 C 421.748987 25.864576 422.936487 21.999993 422.936487 17.463534 C 422.936487 12.984367 421.722945 9.1302 419.306278 5.91145 C 416.884403 2.687491 413.384402 1.072908 408.806277 1.072908 C 404.275027 1.072908 400.775026 2.687491 398.311485 5.91145 C 395.847943 9.1302 394.618776 12.984367 394.618776 17.463534 Z M 448.540655 -9.989593 L 468.608365 -9.989593 C 474.207324 -9.989593 478.733366 -8.546885 482.196908 -5.661468 C 485.670867 -2.776051 487.405242 1.421866 487.405242 6.932283 C 487.405242 12.447909 485.644825 16.770826 482.134408 19.906243 C 478.629199 23.04166 474.118782 24.609368 468.608365 24.609368 L 461.071906 24.609368 L 461.071906 44.999995 L 448.540655 44.999995 Z M 461.071906 14.598951 L 464.603157 14.598951 C 467.40524 14.598951 469.702115 14.03645 471.504199 12.906242 C 473.306282 11.765617 474.207324 9.91145 474.207324 7.338533 C 474.207324 4.713533 473.306282 2.838533 471.504199 1.708324 C 469.702115 0.572908 467.40524 -0.00000901222 464.603157 -0.00000901222 L 461.071906 -0.00000901222 Z M 461.071906 14.598951 " stroke="#3d2028" stroke-width="8.999991" stroke-opacity="1" stroke-miterlimit="4"/><g fill="#ffd569" fill-opacity="1"><g transform="translate(5.848442, 58.250004)"><g><path d="M 18.203125 -42 C 20.429688 -42 22.613281 -41.671875 24.75 -41.015625 C 26.882812 -40.367188 28.46875 -39.726562 29.5 -39.09375 L 31 -38.09375 L 27.203125 -30.59375 C 26.898438 -30.800781 26.484375 -31.0625 25.953125 -31.375 C 25.421875 -31.6875 24.421875 -32.109375 22.953125 -32.640625 C 21.484375 -33.179688 20.113281 -33.453125 18.84375 -33.453125 C 17.28125 -33.453125 16.070312 -33.117188 15.21875 -32.453125 C 14.375 -31.785156 13.953125 -30.882812 13.953125 -29.75 C 13.953125 -29.1875 14.148438 -28.660156 14.546875 -28.171875 C 14.953125 -27.691406 15.632812 -27.175781 16.59375 -26.625 C 17.5625 -26.070312 18.410156 -25.628906 19.140625 -25.296875 C 19.878906 -24.960938 21.015625 -24.460938 22.546875 -23.796875 C 25.210938 -22.660156 27.488281 -21.117188 29.375 -19.171875 C 31.257812 -17.222656 32.203125 -15.015625 32.203125 -12.546875 C 32.203125 -10.179688 31.773438 -8.113281 30.921875 -6.34375 C 30.078125 -4.582031 28.910156 -3.203125 27.421875 -2.203125 C 25.941406 -1.203125 24.300781 -0.460938 22.5 0.015625 C 20.695312 0.503906 18.75 0.75 16.65625 0.75 C 14.851562 0.75 13.082031 0.566406 11.34375 0.203125 C 9.613281 -0.160156 8.164062 -0.617188 7 -1.171875 C 5.832031 -1.722656 4.78125 -2.265625 3.84375 -2.796875 C 2.914062 -3.328125 2.234375 -3.78125 1.796875 -4.15625 L 1.15625 -4.703125 L 5.84375 -12.59375 C 6.25 -12.257812 6.800781 -11.832031 7.5 -11.3125 C 8.195312 -10.800781 9.4375 -10.113281 11.21875 -9.25 C 13.007812 -8.382812 14.585938 -7.953125 15.953125 -7.953125 C 19.921875 -7.953125 21.90625 -9.300781 21.90625 -12 C 21.90625 -12.5625 21.757812 -13.082031 21.46875 -13.5625 C 21.1875 -14.050781 20.6875 -14.535156 19.96875 -15.015625 C 19.257812 -15.503906 18.628906 -15.890625 18.078125 -16.171875 C 17.523438 -16.453125 16.625 -16.882812 15.375 -17.46875 C 14.125 -18.050781 13.195312 -18.492188 12.59375 -18.796875 C 10.09375 -20.035156 8.160156 -21.578125 6.796875 -23.421875 C 5.429688 -25.273438 4.75 -27.269531 4.75 -29.40625 C 4.75 -33.101562 6.113281 -36.125 8.84375 -38.46875 C 11.582031 -40.820312 14.703125 -42 18.203125 -42 Z M 18.203125 -42 "/></g></g></g><g fill="#ffd569" fill-opacity="1"><g transform="translate(44.34324, 58.250004)"><g><path d="M 0.40625 -33 L 0.40625 -41.25 L 29.40625 -41.25 L 29.40625 -33 L 19.59375 -33 L 19.59375 0 L 10.203125 0 L 10.203125 -33 Z M 0.40625 -33 "/></g></g></g><g fill="#ffd569" fill-opacity="1"><g transform="translate(79.038621, 58.250004)"><g><path d="M 23.953125 -41.25 L 40.59375 0 L 30.5 0 L 27.453125 -8.25 L 11.75 -8.25 L 8.703125 0 L -1.40625 0 L 15.25 -41.25 Z M 24.25 -16.5 L 19.65625 -28.5 L 19.546875 -28.5 L 14.953125 -16.5 Z M 24.25 -16.5 "/></g></g></g><g fill="#ffd569" fill-opacity="1"><g transform="translate(123.132544, 58.250004)"><g><path d="M 18.203125 -42 C 20.429688 -42 22.613281 -41.671875 24.75 -41.015625 C 26.882812 -40.367188 28.46875 -39.726562 29.5 -39.09375 L 31 -38.09375 L 27.203125 -30.59375 C 26.898438 -30.800781 26.484375 -31.0625 25.953125 -31.375 C 25.421875 -31.6875 24.421875 -32.109375 22.953125 -32.640625 C 21.484375 -33.179688 20.113281 -33.453125 18.84375 -33.453125 C 17.28125 -33.453125 16.070312 -33.117188 15.21875 -32.453125 C 14.375 -31.785156 13.953125 -30.882812 13.953125 -29.75 C 13.953125 -29.1875 14.148438 -28.660156 14.546875 -28.171875 C 14.953125 -27.691406 15.632812 -27.175781 16.59375 -26.625 C 17.5625 -26.070312 18.410156 -25.628906 19.140625 -25.296875 C 19.878906 -24.960938 21.015625 -24.460938 22.546875 -23.796875 C 25.210938 -22.660156 27.488281 -21.117188 29.375 -19.171875 C 31.257812 -17.222656 32.203125 -15.015625 32.203125 -12.546875 C 32.203125 -10.179688 31.773438 -8.113281 30.921875 -6.34375 C 30.078125 -4.582031 28.910156 -3.203125 27.421875 -2.203125 C 25.941406 -1.203125 24.300781 -0.460938 22.5 0.015625 C 20.695312 0.503906 18.75 0.75 16.65625 0.75 C 14.851562 0.75 13.082031 0.566406 11.34375 0.203125 C 9.613281 -0.160156 8.164062 -0.617188 7 -1.171875 C 5.832031 -1.722656 4.78125 -2.265625 3.84375 -2.796875 C 2.914062 -3.328125 2.234375 -3.78125 1.796875 -4.15625 L 1.15625 -4.703125 L 5.84375 -12.59375 C 6.25 -12.257812 6.800781 -11.832031 7.5 -11.3125 C 8.195312 -10.800781 9.4375 -10.113281 11.21875 -9.25 C 13.007812 -8.382812 14.585938 -7.953125 15.953125 -7.953125 C 19.921875 -7.953125 21.90625 -9.300781 21.90625 -12 C 21.90625 -12.5625 21.757812 -13.082031 21.46875 -13.5625 C 21.1875 -14.050781 20.6875 -14.535156 19.96875 -15.015625 C 19.257812 -15.503906 18.628906 -15.890625 18.078125 -16.171875 C 17.523438 -16.453125 16.625 -16.882812 15.375 -17.46875 C 14.125 -18.050781 13.195312 -18.492188 12.59375 -18.796875 C 10.09375 -20.035156 8.160156 -21.578125 6.796875 -23.421875 C 5.429688 -25.273438 4.75 -27.269531 4.75 -29.40625 C 4.75 -33.101562 6.113281 -36.125 8.84375 -38.46875 C 11.582031 -40.820312 14.703125 -42 18.203125 -42 Z M 18.203125 -42 "/></g></g></g><g fill="#ffd569" fill-opacity="1"><g transform="translate(161.627341, 58.250004)"><g><path d="M 12.40625 -16.546875 L 12.40625 0 L 3 0 L 3 -41.25 L 12.40625 -41.25 L 12.40625 -24.796875 L 25.703125 -24.796875 L 25.703125 -41.25 L 35.09375 -41.25 L 35.09375 0 L 25.703125 0 L 25.703125 -16.546875 Z M 12.40625 -16.546875 "/></g></g></g><g fill="#ffd569" fill-opacity="1"><g transform="translate(204.621451, 58.250004)"><g><path d="M 3 -41.25 L 14.953125 -41.25 C 20.679688 -41.25 25.578125 -39.289062 29.640625 -35.375 C 33.710938 -31.457031 35.75 -26.550781 35.75 -20.65625 C 35.75 -14.71875 33.722656 -9.789062 29.671875 -5.875 C 25.617188 -1.957031 20.710938 0 14.953125 0 L 3 0 Z M 12.40625 -8.40625 L 13.84375 -8.40625 C 17.28125 -8.40625 20.085938 -9.5625 22.265625 -11.875 C 24.453125 -14.1875 25.5625 -17.09375 25.59375 -20.59375 C 25.59375 -24.09375 24.5 -27.007812 22.3125 -29.34375 C 20.132812 -31.675781 17.3125 -32.84375 13.84375 -32.84375 L 12.40625 -32.84375 Z M 12.40625 -8.40625 "/></g></g></g><g fill="#ffd569" fill-opacity="1"><g transform="translate(246.415729, 58.250004)"><g><path d="M 3 -41.25 L 17.75 -41.25 C 21.71875 -41.25 24.953125 -40.191406 27.453125 -38.078125 C 29.953125 -35.960938 31.203125 -32.9375 31.203125 -29 C 31.203125 -25.96875 30.441406 -23.425781 28.921875 -21.375 C 27.410156 -19.320312 25.351562 -17.878906 22.75 -17.046875 L 36.953125 0 L 25 0 L 12.40625 -16.296875 L 12.40625 0 L 3 0 Z M 12.40625 -22.953125 L 13.5 -22.953125 C 14.363281 -22.953125 15.09375 -22.96875 15.6875 -23 C 16.289062 -23.03125 16.976562 -23.144531 17.75 -23.34375 C 18.519531 -23.550781 19.132812 -23.835938 19.59375 -24.203125 C 20.0625 -24.566406 20.460938 -25.097656 20.796875 -25.796875 C 21.128906 -26.492188 21.296875 -27.34375 21.296875 -28.34375 C 21.296875 -29.34375 21.128906 -30.191406 20.796875 -30.890625 C 20.460938 -31.597656 20.0625 -32.132812 19.59375 -32.5 C 19.132812 -32.863281 18.519531 -33.144531 17.75 -33.34375 C 16.976562 -33.550781 16.289062 -33.671875 15.6875 -33.703125 C 15.09375 -33.734375 14.363281 -33.75 13.5 -33.75 L 12.40625 -33.75 Z M 12.40625 -22.953125 "/></g></g></g><g fill="#ffd569" fill-opacity="1"><g transform="translate(287.110183, 58.250004)"><g><path d="M 1.15625 -20.65625 C 1.15625 -26.613281 3.1875 -31.660156 7.25 -35.796875 C 11.3125 -39.929688 16.210938 -42 21.953125 -42 C 27.710938 -42 32.609375 -39.941406 36.640625 -35.828125 C 40.679688 -31.710938 42.703125 -26.65625 42.703125 -20.65625 C 42.703125 -14.613281 40.71875 -9.535156 36.75 -5.421875 C 32.78125 -1.304688 27.847656 0.75 21.953125 0.75 C 15.921875 0.75 10.945312 -1.289062 7.03125 -5.375 C 3.113281 -9.457031 1.15625 -14.550781 1.15625 -20.65625 Z M 11.296875 -20.65625 C 11.296875 -18.488281 11.628906 -16.507812 12.296875 -14.71875 C 12.960938 -12.9375 14.128906 -11.425781 15.796875 -10.1875 C 17.460938 -8.957031 19.515625 -8.34375 21.953125 -8.34375 C 25.453125 -8.34375 28.09375 -9.539062 29.875 -11.9375 C 31.65625 -14.34375 32.546875 -17.25 32.546875 -20.65625 C 32.546875 -24.019531 31.632812 -26.910156 29.8125 -29.328125 C 28 -31.742188 25.378906 -32.953125 21.953125 -32.953125 C 18.546875 -32.953125 15.914062 -31.742188 14.0625 -29.328125 C 12.21875 -26.910156 11.296875 -24.019531 11.296875 -20.65625 Z M 11.296875 -20.65625 "/></g></g></g><g fill="#ffd569" fill-opacity="1"><g transform="translate(335.853405, 58.250004)"><g><path d="M 3 -41.25 L 18.046875 -41.25 C 22.242188 -41.25 25.644531 -40.164062 28.25 -38 C 30.851562 -35.832031 32.15625 -32.679688 32.15625 -28.546875 C 32.15625 -24.410156 30.835938 -21.164062 28.203125 -18.8125 C 25.566406 -16.46875 22.179688 -15.296875 18.046875 -15.296875 L 12.40625 -15.296875 L 12.40625 0 L 3 0 Z M 12.40625 -22.796875 L 15.046875 -22.796875 C 17.148438 -22.796875 18.875 -23.21875 20.21875 -24.0625 C 21.570312 -24.914062 22.25 -26.3125 22.25 -28.25 C 22.25 -30.21875 21.570312 -31.625 20.21875 -32.46875 C 18.875 -33.320312 17.148438 -33.75 15.046875 -33.75 L 12.40625 -33.75 Z M 12.40625 -22.796875 "/></g></g></g></svg>