<svg width="156" height="32" viewBox="0 0 156 32" fill="none" xmlns="http://www.w3.org/2000/svg">
<path d="M13.2983 30.0707C16.2909 30.0707 18.4807 29.2678 20.123 27.6256C21.5828 26.1292 22.4222 24.0125 22.4222 21.8228C22.4222 19.5236 21.4733 17.3339 19.977 16.093C18.8456 15.1441 16.8749 14.1588 14.7946 13.5383C12.8969 12.9179 12.3859 12.5895 12.3859 11.8596C12.3859 11.3486 12.8239 10.9107 13.3348 10.9107C13.7728 10.9107 14.1742 11.0932 15.0136 11.7866C16.3639 12.8084 17.2398 13.1734 18.3347 13.1734C20.1594 13.1734 21.4733 11.7866 21.4733 9.85231C21.4733 6.85969 18.0427 4.52399 13.6633 4.52399C8.37145 4.52399 4.72191 7.77207 4.72191 12.5165C4.72191 15.9105 6.47369 18.2097 10.0137 19.4506C10.6707 19.7061 11.3276 19.925 11.9845 20.144C13.2618 20.6184 13.3713 20.6914 13.5903 20.8374C14.0282 21.1294 14.2107 21.4213 14.2107 21.8593C14.2107 22.4797 13.8093 22.9177 13.1888 22.9177C12.6049 22.9177 12.3859 22.7717 10.6342 21.4213C9.61229 20.5819 8.7729 20.2535 7.78752 20.2535C5.74378 20.2535 4.13799 21.8593 4.13799 23.903C4.13799 27.3701 8.11598 30.0707 13.2983 30.0707Z" fill="black"/>
<path d="M31.7815 9.66983C31.7815 7.95455 31.4895 7.04217 30.6866 6.20277C29.9567 5.43637 28.8254 4.92543 27.7305 4.92543C26.5627 4.92543 25.3218 5.54586 24.5554 6.49474C23.862 7.40712 23.716 7.99105 23.716 10.2903V18.8667C23.716 22.0783 24.1905 23.7935 25.6868 25.8373C27.621 28.4649 30.7231 30.0707 33.9712 30.0707C36.8544 30.0707 39.701 28.7569 41.6717 26.4942C43.4235 24.5234 44.2264 22.1512 44.2264 18.8667V10.2173C44.2264 8.02754 44.0439 7.29763 43.2775 6.38525C42.5476 5.50936 41.3068 4.92543 40.1389 4.92543C38.9346 4.92543 37.8032 5.50936 37.0368 6.45824C36.3069 7.33413 36.1609 7.88156 36.1609 9.66983V19.3776C36.1609 21.0564 35.3581 22.0783 33.9712 22.0783C32.5844 22.0783 31.7815 21.0199 31.7815 19.2681V9.66983Z" fill="black"/>
<path d="M54.3482 9.9253C54.3482 7.95455 54.0927 7.11516 53.2898 6.20277C52.5599 5.39987 51.465 4.92543 50.2972 4.92543C49.1293 4.92543 48.071 5.39988 47.3411 6.23927C46.5017 7.15165 46.3192 7.88156 46.3192 9.9253V24.9979C46.3192 26.6767 46.5747 27.5161 47.3411 28.3555C48.0345 29.1219 49.2388 29.6328 50.3337 29.6328C51.3921 29.6328 52.5599 29.1219 53.3263 28.2825C54.0562 27.4796 54.3482 26.5307 54.3482 24.9979V9.9253Z" fill="black"/>
<path d="M64.1743 20.144H67.0574C69.3566 20.144 70.5975 19.0856 70.5975 17.1879C70.5975 16.166 70.0865 15.2901 69.2471 14.7792C68.6267 14.4142 68.0428 14.3047 66.656 14.3047H64.1743V12.626H68.2253C69.6851 12.626 70.488 12.407 71.2544 11.7501C72.0208 11.0567 72.5317 9.88881 72.5317 8.79394C72.5317 7.51661 71.8748 6.34876 70.8164 5.72833C69.904 5.1809 69.3931 5.10791 66.7654 5.10791H61.9481C60.8897 5.10791 60.1598 5.14441 59.8313 5.1809C59.1014 5.25389 58.3715 5.47287 57.8971 5.80133C56.6197 6.64072 56.1453 7.73558 56.1453 9.88881V23.9395C56.1453 26.1657 56.2183 26.6402 56.6562 27.5526C57.2767 28.7934 58.6635 29.6328 60.1598 29.6328C61.5466 29.6328 62.8239 28.9029 63.5174 27.7715C64.1013 26.8227 64.1743 26.3482 64.1743 23.976V20.144Z" fill="black"/>
<path d="M89.4299 20.071C91.2912 17.9908 92.0211 16.2025 92.0211 13.8668C92.0211 9.9253 89.3934 6.53123 85.6344 5.47287C84.576 5.2174 83.7001 5.10791 81.7294 5.10791H78.3718C76.4376 5.10791 75.6347 5.36338 74.7223 6.16628C73.7734 7.00567 73.4085 7.99105 73.4085 9.74282V24.7424C73.4085 26.2752 73.7004 27.3336 74.3573 28.173C75.0872 29.0854 76.2916 29.6328 77.4959 29.6328C79.7222 29.6328 81.4374 27.881 81.4374 25.5818V22.2607L84.7585 27.7715C85.4884 28.9759 86.6563 29.6328 88.0796 29.6328C90.3423 29.6328 92.0941 27.9175 92.0941 25.6913C92.0941 24.8519 91.8386 23.903 91.3277 23.1001L89.4299 20.071ZM81.4374 12.553C81.8024 12.5895 82.0943 12.5895 82.2768 12.5895C83.4812 12.553 84.1381 13.0274 84.1381 13.9033C84.1381 14.7792 83.5177 15.2171 82.3133 15.1806C82.1673 15.1806 81.9849 15.1806 81.7659 15.1806H81.4374V12.553Z" fill="black"/>
<path d="M101.895 21.9323V20.1075H104.779C106.056 20.1075 106.64 19.9615 107.26 19.4871C107.917 18.9397 108.319 18.1003 108.319 17.1879C108.319 15.4726 107.041 14.3047 105.07 14.3047H101.895V12.626H105.91C107.406 12.626 108.246 12.3705 108.975 11.7501C109.815 11.0567 110.289 9.9618 110.289 8.79394C110.289 7.11516 109.194 5.72833 107.516 5.29039C106.968 5.14441 106.749 5.10791 104.45 5.10791H99.6327C97.2605 5.10791 97.078 5.14441 96.1656 5.50936C95.3262 5.87432 94.5598 6.60422 94.2313 7.51661C93.9029 8.28301 93.8664 8.53848 93.8664 10.5822V23.7935C93.8664 25.4723 93.9029 25.6913 94.0124 26.2022C94.2678 27.6256 95.0707 28.6109 96.3116 29.1219C97.005 29.3773 97.5159 29.4503 99.3772 29.4503H105.618C107.443 29.4503 108.136 29.2678 108.939 28.6109C109.742 27.9175 110.253 26.8227 110.253 25.6913C110.253 24.5964 109.778 23.5746 108.939 22.8447C108.1 22.1512 107.333 21.9323 105.581 21.9323H101.895Z" fill="black"/>
<path d="M125.229 14.3777L118.843 6.53123C117.93 5.39988 117.018 4.92543 115.85 4.92543C113.332 4.92543 111.653 6.64072 111.653 9.23189V24.6329C111.653 26.4212 111.836 27.1511 112.492 28.0635C113.259 29.0489 114.463 29.6328 115.704 29.6328C116.908 29.6328 118.04 29.0854 118.806 28.173C119.5 27.2971 119.718 26.5672 119.718 24.9614V19.852L126.069 27.9905C126.908 29.0854 127.966 29.6328 129.244 29.6328C130.485 29.6328 131.652 29.0854 132.382 28.1365C133.076 27.2241 133.258 26.4212 133.258 24.4869V9.59684C133.258 8.10053 133.003 7.26114 132.309 6.38525C131.543 5.47287 130.448 4.92543 129.244 4.92543C127.93 4.92543 126.653 5.61885 125.959 6.67721C125.375 7.51661 125.229 8.24651 125.229 9.85231V14.3777Z" fill="black"/>
<path d="M144.071 30.0707C147.064 30.0707 149.254 29.2678 150.896 27.6256C152.356 26.1292 153.195 24.0125 153.195 21.8228C153.195 19.5236 152.246 17.3339 150.75 16.093C149.619 15.1441 147.648 14.1588 145.568 13.5383C143.67 12.9179 143.159 12.5895 143.159 11.8596C143.159 11.3486 143.597 10.9107 144.108 10.9107C144.546 10.9107 144.947 11.0932 145.787 11.7866C147.137 12.8084 148.013 13.1734 149.108 13.1734C150.933 13.1734 152.246 11.7866 152.246 9.85231C152.246 6.85969 148.816 4.52399 144.436 4.52399C139.145 4.52399 135.495 7.77207 135.495 12.5165C135.495 15.9105 137.247 18.2097 140.787 19.4506C141.444 19.7061 142.101 19.925 142.758 20.144C144.035 20.6184 144.144 20.6914 144.363 20.8374C144.801 21.1294 144.984 21.4213 144.984 21.8593C144.984 22.4797 144.582 22.9177 143.962 22.9177C143.378 22.9177 143.159 22.7717 141.407 21.4213C140.385 20.5819 139.546 20.2535 138.561 20.2535C136.517 20.2535 134.911 21.8593 134.911 23.903C134.911 27.3701 138.889 30.0707 144.071 30.0707Z" fill="black"/>
<path fill-rule="evenodd" clip-rule="evenodd" d="M21.4955 28.9813L21.4871 28.9897C19.396 31.0808 16.6648 32 13.2983 32C10.3919 32 7.70954 31.2457 5.69536 29.8861C3.67795 28.5243 2.20866 26.4457 2.20866 23.903C2.20866 21.68 3.47099 19.784 5.32692 18.8838C5.03095 18.5967 4.75687 18.2895 4.50635 17.9611C3.32702 16.4151 2.79259 14.5606 2.79259 12.5164C2.79259 9.61976 3.921 7.08937 5.92327 5.30184C7.90799 3.52998 10.6263 2.59467 13.6632 2.59467C16.1765 2.59467 18.5227 3.26185 20.2974 4.47185C21.0873 5.01041 21.7886 5.67867 22.324 6.45719C22.5153 6.03842 22.7524 5.67853 23.0194 5.32732L23.0366 5.30463L23.0545 5.28246C24.1606 3.91308 25.9386 2.99611 27.7305 2.99611C29.3738 2.99611 31.0034 3.73842 32.0828 4.87128C32.6646 5.48 33.103 6.16836 33.3744 7.02537C33.6326 7.84091 33.7108 8.72051 33.7108 9.6698V19.2681C33.7108 19.845 33.8386 20.0857 33.8764 20.1414C33.8937 20.1449 33.9242 20.1489 33.9712 20.1489C34.0328 20.1489 34.0706 20.1427 34.0899 20.1381C34.1215 20.0894 34.2316 19.8805 34.2316 19.3776V9.6698C34.2316 8.77167 34.2617 7.95783 34.4634 7.21576C34.6883 6.38848 35.0837 5.7899 35.5456 5.23397C36.6456 3.87896 38.3068 2.99611 40.1389 2.99611C41.874 2.99611 43.6579 3.83005 44.7571 5.14713C44.9346 5.35853 45.0977 5.57451 45.2447 5.80294C45.4368 5.49932 45.658 5.22085 45.9037 4.95213C47.0147 3.68693 48.6044 2.99611 50.2972 2.99611C51.9755 2.99611 53.6001 3.67603 54.7173 4.90496L54.7278 4.91649L54.7381 4.9282C54.9408 5.15857 55.1268 5.39672 55.2937 5.65033C55.7053 5.06642 56.2226 4.59564 56.8196 4.20078C57.651 3.63283 58.7202 3.35434 59.6291 3.26218C60.0676 3.21436 60.8775 3.17859 61.948 3.17859H66.7654C68.0467 3.17859 68.9831 3.1928 69.724 3.30542C70.5941 3.43768 71.1858 3.70083 71.8009 4.06907C72.2764 4.34908 72.697 4.6966 73.0554 5.09512C73.1786 4.96573 73.3082 4.84131 73.4439 4.72121L73.4458 4.71956L73.4477 4.7179C74.0617 4.17757 74.7318 3.74701 75.6178 3.48557C76.4426 3.24218 77.3477 3.17859 78.3718 3.17859H81.7293C83.7979 3.17859 84.8353 3.29527 86.087 3.59741L86.1223 3.60592L86.1572 3.61575C88.6288 4.31164 90.7039 5.83989 92.0898 7.85789C92.1759 7.45568 92.2978 7.1336 92.4376 6.80441C92.9797 5.35608 94.1538 4.28026 95.3963 3.74004L95.4225 3.72864L95.449 3.71803C95.9456 3.51939 96.4087 3.34177 97.1218 3.2562C97.7173 3.18474 98.4851 3.17859 99.6326 3.17859H104.45C106.707 3.17859 107.18 3.20467 108.008 3.42492C109.211 3.73981 110.234 4.39876 110.971 5.28813C111.111 5.10383 111.263 4.92736 111.426 4.75957C112.569 3.58833 114.14 2.99611 115.85 2.99611C116.713 2.99611 117.551 3.17612 118.349 3.60129C119.128 4.01632 119.775 4.61427 120.342 5.3167C120.343 5.31783 120.343 5.31896 120.344 5.32008L123.318 8.97328C123.378 7.68416 123.615 6.67733 124.361 5.59684C125.419 3.99951 127.299 2.99611 129.244 2.99611C131.056 2.99611 132.679 3.82518 133.787 5.14431L133.805 5.16575L133.822 5.1877C134.295 5.78563 134.662 6.43008 134.893 7.20856C134.912 7.27249 134.93 7.33668 134.947 7.40114C135.419 6.6233 136.006 5.91839 136.696 5.30184C138.681 3.52998 141.399 2.59467 144.436 2.59467C146.95 2.59467 149.296 3.26185 151.07 4.47185C152.847 5.68304 154.176 7.55017 154.176 9.85228C154.176 11.7948 153.242 13.4929 151.724 14.401C151.815 14.4708 151.902 14.541 151.986 14.6116C153.994 16.2793 155.125 19.0525 155.125 21.8228C155.125 24.4901 154.106 27.098 152.277 28.9728L152.269 28.9813L152.26 28.9897C150.169 31.0808 147.438 32 144.071 32C141.165 32 138.483 31.2457 136.468 29.8861C135.762 29.4095 135.124 28.8451 134.591 28.2038C134.409 28.5961 134.184 28.9545 133.918 29.3038L133.915 29.3083L133.912 29.3128C132.792 30.7688 131.042 31.562 129.244 31.562C127.316 31.562 125.713 30.694 124.543 29.1714C124.541 29.169 124.539 29.1667 124.538 29.1643L121.641 25.452C121.62 26.133 121.55 26.7679 121.377 27.3731C121.149 28.165 120.78 28.788 120.319 29.3705L120.301 29.3924L120.283 29.4138C119.163 30.748 117.497 31.562 115.704 31.562C113.873 31.562 112.106 30.7072 110.972 29.2511C110.742 29.5503 110.484 29.8257 110.2 30.071L110.181 30.0878L110.161 30.1041C109.584 30.5758 108.962 30.9368 108.138 31.1466C107.391 31.3367 106.561 31.3796 105.618 31.3796H99.3772C97.4879 31.3796 96.6813 31.3141 95.6446 30.9322L95.6105 30.9196L95.577 30.9058C94.5252 30.4727 93.6774 29.7952 93.0713 28.9207C92.0141 30.5298 90.1772 31.562 88.0795 31.562C85.9867 31.562 84.1908 30.5571 83.1085 28.7714L83.1073 28.7694L82.7817 28.229C81.8465 30.2086 79.8758 31.562 77.4959 31.562C75.7492 31.562 73.9733 30.7813 72.8508 29.3782L72.8443 29.3701L72.838 29.362C71.8204 28.0617 71.4791 26.5214 71.4791 24.7424V20.3044C71.3169 20.4995 71.1342 20.6837 70.9302 20.855C69.8626 21.7515 68.47 22.0733 67.0574 22.0733H66.1035V23.976C66.1035 25.1279 66.0902 26.0085 65.9664 26.7326C65.8209 27.5841 65.5348 28.174 65.1615 28.7809C64.1161 30.4856 62.2152 31.562 60.1597 31.562C58.1924 31.562 56.3055 30.5757 55.2448 28.9608C55.0999 29.1726 54.9368 29.3789 54.7538 29.5802L54.7524 29.5818L54.751 29.5833C53.6291 30.8121 51.9488 31.562 50.3337 31.562C48.738 31.562 47.001 30.8526 45.9139 29.6537C45.3676 29.0548 44.9517 28.3899 44.697 27.5531C44.5462 27.0576 44.4638 26.5392 44.4232 25.9955C44.0537 26.6149 43.6207 27.2046 43.1201 27.7687C40.7963 30.4325 37.4287 32 33.9712 32C30.0933 32 26.421 30.0892 24.133 26.981L24.1315 26.979L24.1301 26.9769C23.8955 26.6565 23.679 26.3375 23.4804 26.0151C23.0032 27.1108 22.3378 28.118 21.5039 28.9728L21.4955 28.9813ZM22.2886 23.3321C22.3767 22.8375 22.4221 22.3321 22.4221 21.8228C22.4221 20.7899 22.2306 19.7792 21.8841 18.8666C21.8529 18.7844 21.8204 18.7031 21.7867 18.6225C21.3616 17.6066 20.7406 16.7262 19.9769 16.093C19.5807 15.7607 19.0816 15.4239 18.5108 15.0999C18.4528 15.067 18.3941 15.0342 18.3346 15.0015C17.3087 14.4381 16.0723 13.9194 14.7946 13.5383C14.4611 13.4293 14.1704 13.3293 13.9178 13.2345C13.8919 13.2248 13.8664 13.2151 13.8414 13.2055C13.7414 13.1673 13.6477 13.1298 13.56 13.0929C12.6616 12.7152 12.3859 12.3956 12.3859 11.8595C12.3859 11.3486 12.8238 10.9106 13.3348 10.9106C13.6759 10.9106 13.9948 11.0213 14.5158 11.3979C14.6637 11.5048 14.8279 11.6332 15.0136 11.7865C15.0982 11.8506 15.181 11.912 15.262 11.971C15.2742 11.9798 15.2863 11.9886 15.2984 11.9973C16.4913 12.8591 17.3187 13.1734 18.3346 13.1734C18.5346 13.1734 18.7285 13.1567 18.9151 13.1245C20.4316 12.8628 21.4732 11.5746 21.4732 9.85228C21.4732 6.85966 18.0427 4.52395 13.6632 4.52395C8.37141 4.52395 4.72188 7.77204 4.72188 12.5164C4.72188 15.0645 5.70919 16.9955 7.69926 18.3248C7.72845 18.3443 7.75786 18.3637 7.78749 18.3829C8.42838 18.7992 9.17029 19.1549 10.0137 19.4506C10.5737 19.6683 11.1336 19.8596 11.6936 20.0469C11.7118 20.053 11.7299 20.0591 11.7481 20.0651C11.8269 20.0914 11.9057 20.1177 11.9845 20.144C12.0922 20.184 12.1916 20.2212 12.2835 20.2557C13.281 20.6312 13.3897 20.7037 13.5902 20.8374C14.0282 21.1293 14.2107 21.4213 14.2107 21.8592C14.2107 22.4797 13.8092 22.9176 13.1888 22.9176C12.6948 22.9176 12.462 22.8131 11.3411 21.9632C11.341 21.9631 11.341 21.9631 11.3409 21.963C11.3326 21.9567 11.3243 21.9504 11.3159 21.944C11.118 21.7938 10.8927 21.6207 10.6341 21.4213C10.2625 21.1161 9.91506 20.8784 9.57593 20.6995C9.56263 20.6925 9.54935 20.6856 9.53608 20.6787C8.95699 20.3806 8.40049 20.2535 7.78749 20.2535C7.59368 20.2535 7.40381 20.2679 7.21887 20.2958C5.45363 20.5619 4.13795 22.0531 4.13795 23.903C4.13795 27.37 8.11594 30.0707 13.2983 30.0707C16.2909 30.0707 18.4806 29.2678 20.1229 27.6255C21.2432 26.4773 21.9981 24.9636 22.2886 23.3321ZM20.9514 14.401C21.0413 14.4707 21.1284 14.5408 21.2124 14.6112C21.4127 14.7775 21.6042 14.9547 21.7867 15.1419V13.7677C21.5333 14.0073 21.2539 14.2199 20.9514 14.401ZM23.716 18.8666C23.716 20.0157 23.7767 20.9732 23.9233 21.8228C24.0069 22.3074 24.1184 22.757 24.2625 23.1869C24.5718 24.1096 25.0312 24.9419 25.6867 25.8372C27.621 28.4649 30.7231 30.0707 33.9712 30.0707C36.8543 30.0707 39.701 28.7569 41.6717 26.4942C43.4235 24.5234 44.2264 22.1512 44.2264 18.8666V10.2172C44.2264 8.02751 44.0439 7.2976 43.2775 6.38522C42.5476 5.50933 41.3068 4.9254 40.1389 4.9254C38.9346 4.9254 37.8032 5.50933 37.0368 6.45821C36.3069 7.3341 36.1609 7.88153 36.1609 9.6698V19.3776C36.1609 21.0564 35.358 22.0782 33.9712 22.0782C32.5844 22.0782 31.7815 21.0199 31.7815 19.2681V9.6698C31.7815 7.95452 31.4895 7.04213 30.6866 6.20274C29.9567 5.43634 28.8253 4.9254 27.7305 4.9254C26.5626 4.9254 25.3218 5.54582 24.5554 6.4947C23.862 7.40709 23.716 7.99101 23.716 10.2902V18.8666ZM54.2812 26.1222C54.3268 25.7844 54.3481 25.4125 54.3481 24.9978V9.92527C54.3481 9.91306 54.3481 9.90089 54.3481 9.88877C54.3473 9.36304 54.3278 8.91843 54.2842 8.5316C54.1663 7.48756 53.872 6.86434 53.2898 6.20274C52.5599 5.39984 51.465 4.9254 50.2972 4.9254C49.1293 4.9254 48.0709 5.39984 47.341 6.23923C46.5016 7.15162 46.3192 7.88153 46.3192 9.92527V24.9978C46.3192 26.6766 46.5746 27.516 47.341 28.3554C48.0344 29.1218 49.2388 29.6328 50.3337 29.6328C51.392 29.6328 52.5599 29.1218 53.3263 28.2824C53.8587 27.6967 54.1582 27.0333 54.2812 26.1222ZM56.2224 26.1324C56.2926 26.7031 56.4224 27.0654 56.6562 27.5525C57.2766 28.7934 58.6634 29.6328 60.1597 29.6328C61.5466 29.6328 62.8239 28.9029 63.5173 27.7715C64.1012 26.8226 64.1742 26.3482 64.1742 23.976V20.144H67.0574C69.3566 20.144 70.5974 19.0856 70.5974 17.1878C70.5974 16.166 70.0865 15.2901 69.2471 14.7791C69.0872 14.6851 68.9297 14.608 68.7603 14.5454C68.5972 14.4851 68.4232 14.4383 68.2252 14.4026C67.8307 14.3315 67.3414 14.3047 66.6559 14.3047H64.1742V12.6259H68.2252C68.5063 12.6259 68.7629 12.6178 68.9997 12.6C69.9928 12.5254 70.6355 12.2805 71.2543 11.75C71.332 11.6798 71.407 11.6047 71.4791 11.5253C71.9144 11.046 72.2446 10.4102 72.4112 9.74279C72.4895 9.42913 72.5317 9.1085 72.5317 8.79391C72.5317 8.07275 72.3223 7.38648 71.9495 6.81393C71.6619 6.37237 71.2772 5.99844 70.8164 5.7283C69.904 5.18087 69.3931 5.10788 66.7654 5.10788H61.948C60.8897 5.10788 60.1597 5.14437 59.8313 5.18087C59.1014 5.25386 58.3715 5.47283 57.897 5.80129C56.915 6.44661 56.4076 7.24293 56.2254 8.55507C56.1706 8.94968 56.1453 9.39094 56.1453 9.88877V23.9395C56.1453 24.3463 56.1477 24.6947 56.1543 24.9978C56.1647 25.4679 56.1851 25.8295 56.2224 26.1324ZM71.4791 13.9151C71.4218 13.9448 71.3642 13.9731 71.3063 14.0002C71.3658 14.0657 71.4235 14.1327 71.4791 14.2013V13.9151ZM81.4208 25.9709C81.4318 25.8431 81.4374 25.7133 81.4374 25.5818V22.2607L84.7585 27.7715C85.4884 28.9758 86.6562 29.6328 88.0795 29.6328C90.1477 29.6328 91.7891 28.1997 92.056 26.2533C92.0811 26.0702 92.094 25.8826 92.094 25.6913C92.094 25.3151 92.0427 24.9169 91.9401 24.5197C91.8137 24.0306 91.6096 23.5431 91.3276 23.1001L89.4299 20.071C90.9329 18.3911 91.6982 16.9017 91.9371 15.1606C91.994 14.7456 92.021 14.3163 92.021 13.8668C92.021 13.4559 91.9925 13.0509 91.9371 12.6539C91.4609 9.24297 89.0015 6.42086 85.6344 5.47283C84.576 5.21736 83.7001 5.10788 81.7293 5.10788H78.3718C76.4375 5.10788 75.6346 5.36335 74.7222 6.16624C74.482 6.37877 74.2792 6.60065 74.1103 6.84195C73.7431 7.36639 73.536 7.98259 73.4524 8.79391C73.4225 9.08373 73.4084 9.39845 73.4084 9.74279V24.7424C73.4084 26.2752 73.7004 27.3336 74.3573 28.1729C75.0872 29.0853 76.2915 29.6328 77.4959 29.6328C79.5947 29.6328 81.2394 28.0757 81.4208 25.9709ZM81.4374 15.1806H82.3133C82.4061 15.1834 82.4955 15.1834 82.5813 15.1806C82.8877 15.1706 83.1498 15.1249 83.3667 15.0443C83.8776 14.8544 84.138 14.4707 84.138 13.9033C84.138 13.3453 83.8715 12.9503 83.3667 12.7464C83.079 12.6303 82.714 12.5762 82.2768 12.5894C82.0943 12.5894 81.8023 12.5894 81.4374 12.5529V15.1806ZM91.9371 20.0372C91.8925 20.0988 91.8473 20.1604 91.8012 20.2221L91.9371 20.439V20.0372ZM93.8677 24.2868C93.8721 25.0322 93.8883 25.4093 93.9218 25.6913C93.9425 25.8649 93.9698 26.0025 94.005 26.1678C94.0074 26.1791 94.0098 26.1906 94.0123 26.2022C94.2678 27.6255 95.0707 28.6109 96.3115 29.1218C97.0049 29.3773 97.5159 29.4503 99.3772 29.4503H105.618C107.443 29.4503 108.136 29.2678 108.939 28.6109C109.379 28.2306 109.732 27.7295 109.96 27.1678C110.149 26.7055 110.253 26.2021 110.253 25.6913C110.253 25.3278 110.2 24.9723 110.1 24.6329C110.011 24.3335 109.885 24.0466 109.724 23.7777C109.517 23.4333 109.254 23.1184 108.939 22.8446C108.213 22.2453 107.542 22.0004 106.242 21.945C106.038 21.9363 105.819 21.9322 105.581 21.9322H101.895V20.1075H104.778C105.082 20.1075 105.346 20.0992 105.581 20.0803C105.776 20.0646 105.951 20.0416 106.111 20.0098C106.57 19.9186 106.909 19.7553 107.26 19.487C107.917 18.9396 108.319 18.1002 108.319 17.1878C108.319 15.9306 107.632 14.9675 106.49 14.5427C106.308 14.4751 106.114 14.4211 105.91 14.3817C105.647 14.3311 105.367 14.3047 105.07 14.3047H101.895V12.6259H105.91C106.208 12.6259 106.48 12.6158 106.731 12.5946C107.736 12.5096 108.391 12.2468 108.975 11.75C109.272 11.505 109.523 11.2099 109.724 10.8791C110.019 10.3919 110.205 9.82737 110.267 9.23185C110.282 9.08747 110.289 8.94127 110.289 8.79391C110.289 8.26387 110.18 7.76294 109.978 7.31179C109.54 6.334 108.664 5.59003 107.516 5.29035C106.968 5.14437 106.749 5.10788 104.45 5.10788H99.6326C97.2604 5.10788 97.0779 5.14437 96.1656 5.50933C95.3262 5.87428 94.5598 6.60419 94.2313 7.51657C93.9028 8.28297 93.8664 8.53844 93.8664 10.5822V23.7935C93.8664 23.9741 93.8668 24.1378 93.8677 24.2868ZM109.724 13.5998C109.503 13.7478 109.276 13.8751 109.043 13.9841C109.315 14.2816 109.543 14.6098 109.724 14.9613V13.5998ZM109.724 19.415C109.514 19.8336 109.246 20.2207 108.926 20.5629C109.211 20.6941 109.474 20.8474 109.724 21.0202V19.415ZM111.653 24.6329C111.653 25.0343 111.662 25.3824 111.684 25.6913C111.727 26.3051 111.82 26.7637 111.987 27.1773C112.111 27.4824 112.276 27.763 112.492 28.0635C113.259 29.0488 114.463 29.6328 115.704 29.6328C116.908 29.6328 118.04 29.0853 118.806 28.1729C119.499 27.2971 119.718 26.5672 119.718 24.9614V19.852L126.069 27.9905C126.908 29.0853 127.966 29.6328 129.244 29.6328C130.485 29.6328 131.652 29.0853 132.382 28.1365C132.916 27.4341 133.147 26.7967 133.225 25.6581C133.249 25.3176 133.258 24.9322 133.258 24.4869V9.59681C133.258 8.1005 133.003 7.2611 132.309 6.38522C131.543 5.47283 130.448 4.9254 129.244 4.9254C127.93 4.9254 126.653 5.61881 125.959 6.67718C125.375 7.51657 125.229 8.24648 125.229 9.85228V14.3777L118.843 6.5312C117.93 5.39984 117.018 4.9254 115.85 4.9254C114.027 4.9254 112.644 5.82394 112.02 7.30277C111.831 7.74974 111.711 8.24971 111.669 8.79391C111.659 8.93689 111.653 9.08293 111.653 9.23185V24.6329ZM135.188 22.4859C135.009 22.9198 134.911 23.398 134.911 23.903C134.911 24.1002 134.924 24.295 134.949 24.4869C134.991 24.8017 135.065 25.1089 135.171 25.4069C136.133 28.1204 139.667 30.0707 144.071 30.0707C147.064 30.0707 149.254 29.2678 150.896 27.6255C152.356 26.1292 153.195 24.0125 153.195 21.8228C153.195 19.5235 152.246 17.3338 150.75 16.093C150.354 15.7607 149.855 15.4239 149.284 15.0999C149.226 15.067 149.167 15.0342 149.108 15.0015C148.082 14.4381 146.845 13.9194 145.568 13.5383C145.234 13.4293 144.944 13.3293 144.691 13.2345C144.665 13.2248 144.64 13.2151 144.614 13.2055C144.515 13.1673 144.421 13.1298 144.333 13.0929C143.435 12.7152 143.159 12.3957 143.159 11.8595C143.159 11.3486 143.597 10.9106 144.108 10.9106C144.449 10.9106 144.768 11.0213 145.289 11.3979C145.437 11.5048 145.601 11.6332 145.787 11.7865C145.871 11.8506 145.954 11.912 146.035 11.971C146.047 11.9798 146.059 11.9886 146.071 11.9973C147.264 12.8591 148.092 13.1734 149.108 13.1734C149.308 13.1734 149.502 13.1567 149.688 13.1245C151.205 12.8628 152.246 11.5746 152.246 9.85228C152.246 6.85966 148.816 4.52395 144.436 4.52395C139.145 4.52395 135.495 7.77204 135.495 12.5164C135.495 15.0645 136.482 16.9955 138.472 18.3248C138.502 18.3443 138.531 18.3637 138.561 18.3829C139.201 18.7992 139.943 19.1549 140.787 19.4506C141.347 19.6683 141.907 19.8596 142.467 20.0469C142.485 20.053 142.503 20.059 142.521 20.0651C142.6 20.0914 142.679 20.1177 142.758 20.144C142.865 20.184 142.965 20.2212 143.057 20.2557C144.054 20.6312 144.163 20.7037 144.363 20.8374C144.801 21.1293 144.984 21.4213 144.984 21.8592C144.984 22.4797 144.582 22.9176 143.962 22.9176C143.468 22.9176 143.235 22.8131 142.114 21.9632C142.114 21.9631 142.114 21.963 142.114 21.963C142.106 21.9567 142.097 21.9504 142.089 21.944C141.891 21.7938 141.666 21.6207 141.407 21.4213C141.036 21.1161 140.688 20.8784 140.349 20.6995C140.336 20.6925 140.322 20.6856 140.309 20.6787C139.73 20.3806 139.174 20.2535 138.561 20.2535C138.367 20.2535 138.177 20.2679 137.992 20.2958C136.709 20.4893 135.663 21.3303 135.188 22.4859ZM136.1 18.8838C135.777 19.0406 135.471 19.2277 135.188 19.4415V17.8382C135.218 17.8794 135.248 17.9203 135.279 17.9611C135.53 18.2895 135.804 18.5967 136.1 18.8838Z" fill="black"/>
<path d="M10.5975 26.9838C13.5901 26.9838 15.7798 26.1809 17.4221 24.5386C18.8819 23.0423 19.7213 20.9256 19.7213 18.7359C19.7213 16.4367 18.7724 14.2469 17.2761 13.0061C16.1448 12.0572 14.174 11.0718 12.0938 10.4514C10.196 9.83101 9.68508 9.50255 9.68508 8.77264C9.68508 8.26171 10.123 7.82376 10.634 7.82376C11.0719 7.82376 11.4734 8.00624 12.3128 8.69965C13.6631 9.72152 14.539 10.0865 15.6338 10.0865C17.4586 10.0865 18.7724 8.69965 18.7724 6.7654C18.7724 3.77278 15.3419 1.43707 10.9624 1.43707C5.6706 1.43707 2.02106 4.68516 2.02106 9.42956C2.02106 12.8236 3.77284 15.1228 7.31289 16.3637C7.9698 16.6191 8.62672 16.8381 9.28364 17.0571C10.561 17.5315 10.6705 17.6045 10.8894 17.7505C11.3274 18.0425 11.5099 18.3344 11.5099 18.7724C11.5099 19.3928 11.1084 19.8307 10.488 19.8307C9.90406 19.8307 9.68509 19.6848 7.93331 18.3344C6.91144 17.495 6.07204 17.1666 5.08667 17.1666C3.04293 17.1666 1.43713 18.7724 1.43713 20.8161C1.43713 24.2832 5.41513 26.9838 10.5975 26.9838Z" fill="url(#paint0_linear_291_492)"/>
<path d="M29.0807 6.58292C29.0807 4.86764 28.7887 3.95525 27.9858 3.11586C27.2559 2.34946 26.1245 1.83852 25.0297 1.83852C23.8618 1.83852 22.621 2.45894 21.8546 3.40782C21.1612 4.32021 21.0152 4.90413 21.0152 7.20334V15.7797C21.0152 18.9913 21.4896 20.7066 22.9859 22.7504C24.9202 25.378 28.0223 26.9838 31.2704 26.9838C34.1535 26.9838 37.0001 25.67 38.9709 23.4073C40.7227 21.4365 41.5256 19.0643 41.5256 15.7797V7.13035C41.5256 4.94063 41.3431 4.21072 40.5767 3.29834C39.8468 2.42245 38.6059 1.83852 37.4381 1.83852C36.2337 1.83852 35.1024 2.42245 34.336 3.37133C33.6061 4.24722 33.4601 4.79465 33.4601 6.58292V16.2907C33.4601 17.9695 32.6572 18.9913 31.2704 18.9913C29.8836 18.9913 29.0807 17.933 29.0807 16.1812V6.58292Z" fill="url(#paint1_linear_291_492)"/>
<path d="M51.6473 6.83839C51.6473 4.86764 51.3919 4.02824 50.589 3.11586C49.8591 2.31296 48.7642 1.83852 47.5963 1.83852C46.4285 1.83852 45.3701 2.31296 44.6402 3.15235C43.8008 4.06474 43.6184 4.79465 43.6184 6.83839V21.911C43.6184 23.5898 43.8738 24.4292 44.6402 25.2685C45.3336 26.0349 46.538 26.5459 47.6328 26.5459C48.6912 26.5459 49.8591 26.0349 50.6255 25.1956C51.3554 24.3927 51.6473 23.4438 51.6473 21.911V6.83839Z" fill="url(#paint2_linear_291_492)"/>
<path d="M61.4734 17.0571H64.3566C66.6558 17.0571 67.8966 15.9987 67.8966 14.101C67.8966 13.0791 67.3857 12.2032 66.5463 11.6923C65.9259 11.3273 65.3419 11.2178 63.9551 11.2178H61.4734V9.53904H65.5244C66.9842 9.53904 67.7871 9.32007 68.5535 8.66315C69.3199 7.96974 69.8309 6.80189 69.8309 5.70703C69.8309 4.42969 69.1739 3.26184 68.1156 2.64142C67.2032 2.09399 66.6923 2.021 64.0646 2.021H59.2472C58.1888 2.021 57.4589 2.05749 57.1305 2.09399C56.4006 2.16698 55.6707 2.38595 55.1962 2.71441C53.9189 3.5538 53.4444 4.64866 53.4444 6.80189V20.8526C53.4444 23.0788 53.5174 23.5533 53.9554 24.4656C54.5758 25.7065 55.9626 26.5459 57.4589 26.5459C58.8458 26.5459 60.1231 25.816 60.8165 24.6846C61.4004 23.7357 61.4734 23.2613 61.4734 20.8891V17.0571Z" fill="url(#paint3_linear_291_492)"/>
<path d="M86.7291 16.9841C88.5903 14.9039 89.3202 13.1156 89.3202 10.7799C89.3202 6.83839 86.6926 3.44432 82.9335 2.38595C81.8752 2.13048 80.9993 2.021 79.0285 2.021H75.671C73.7367 2.021 72.9338 2.27647 72.0214 3.07936C71.0725 3.91876 70.7076 4.90413 70.7076 6.65591V21.6555C70.7076 23.1883 70.9996 24.2467 71.6565 25.0861C72.3864 25.9985 73.5907 26.5459 74.7951 26.5459C77.0213 26.5459 78.7366 24.7941 78.7366 22.4949V19.1738L82.0577 24.6846C82.7876 25.889 83.9554 26.5459 85.3787 26.5459C87.6414 26.5459 89.3932 24.8306 89.3932 22.6044C89.3932 21.765 89.1378 20.8161 88.6268 20.0132L86.7291 16.9841ZM78.7366 9.46605C79.1015 9.50255 79.3935 9.50255 79.576 9.50255C80.7803 9.46605 81.4372 9.94049 81.4372 10.8164C81.4372 11.6923 80.8168 12.1302 79.6125 12.0937C79.4665 12.0937 79.284 12.0937 79.065 12.0937H78.7366V9.46605Z" fill="url(#paint4_linear_291_492)"/>
<path d="M99.1945 18.8454V17.0206H102.078C103.355 17.0206 103.939 16.8746 104.559 16.4002C105.216 15.8527 105.618 15.0133 105.618 14.101C105.618 12.3857 104.34 11.2178 102.37 11.2178H99.1945V9.53904H103.209C104.705 9.53904 105.545 9.28358 106.275 8.66315C107.114 7.96974 107.588 6.87488 107.588 5.70703C107.588 4.02824 106.494 2.64142 104.815 2.20347C104.267 2.05749 104.048 2.021 101.749 2.021H96.9318C94.5596 2.021 94.3771 2.05749 93.4647 2.42245C92.6254 2.7874 91.8589 3.51731 91.5305 4.42969C91.202 5.19609 91.1655 5.45156 91.1655 7.4953V20.7066C91.1655 22.3854 91.202 22.6044 91.3115 23.1153C91.567 24.5386 92.3699 25.524 93.6107 26.0349C94.3041 26.2904 94.8151 26.3634 96.6763 26.3634H102.917C104.742 26.3634 105.435 26.1809 106.238 25.524C107.041 24.8306 107.552 23.7357 107.552 22.6044C107.552 21.5095 107.078 20.4877 106.238 19.7577C105.399 19.0643 104.632 18.8454 102.881 18.8454H99.1945Z" fill="url(#paint5_linear_291_492)"/>
<path d="M122.528 11.2908L116.142 3.44432C115.229 2.31296 114.317 1.83852 113.149 1.83852C110.631 1.83852 108.952 3.5538 108.952 6.14497V21.546C108.952 23.3343 109.135 24.0642 109.792 24.9766C110.558 25.962 111.762 26.5459 113.003 26.5459C114.208 26.5459 115.339 25.9985 116.105 25.0861C116.799 24.2102 117.018 23.4803 117.018 21.8745V16.7651L123.368 24.9036C124.207 25.9985 125.266 26.5459 126.543 26.5459C127.784 26.5459 128.952 25.9985 129.682 25.0496C130.375 24.1372 130.557 23.3343 130.557 21.4V6.50993C130.557 5.01362 130.302 4.17422 129.609 3.29834C128.842 2.38595 127.747 1.83852 126.543 1.83852C125.229 1.83852 123.952 2.53193 123.258 3.5903C122.674 4.42969 122.528 5.1596 122.528 6.7654V11.2908Z" fill="url(#paint6_linear_291_492)"/>
<path d="M141.371 26.9838C144.363 26.9838 146.553 26.1809 148.195 24.5386C149.655 23.0423 150.494 20.9256 150.494 18.7359C150.494 16.4367 149.546 14.2469 148.049 13.0061C146.918 12.0572 144.947 11.0718 142.867 10.4514C140.969 9.83101 140.458 9.50255 140.458 8.77264C140.458 8.26171 140.896 7.82376 141.407 7.82376C141.845 7.82376 142.246 8.00624 143.086 8.69965C144.436 9.72152 145.312 10.0865 146.407 10.0865C148.232 10.0865 149.546 8.69965 149.546 6.7654C149.546 3.77278 146.115 1.43707 141.736 1.43707C136.444 1.43707 132.794 4.68516 132.794 9.42956C132.794 12.8236 134.546 15.1228 138.086 16.3637C138.743 16.6191 139.4 16.8381 140.057 17.0571C141.334 17.5315 141.444 17.6045 141.663 17.7505C142.1 18.0425 142.283 18.3344 142.283 18.7724C142.283 19.3928 141.882 19.8307 141.261 19.8307C140.677 19.8307 140.458 19.6848 138.706 18.3344C137.685 17.495 136.845 17.1666 135.86 17.1666C133.816 17.1666 132.21 18.7724 132.21 20.8161C132.21 24.2832 136.188 26.9838 141.371 26.9838Z" fill="url(#paint7_linear_291_492)"/>
<path fill-rule="evenodd" clip-rule="evenodd" d="M18.4445 25.5486L18.4382 25.5548C16.4616 27.5315 13.8686 28.4209 10.5974 28.4209C7.77145 28.4209 5.18918 27.6868 3.26987 26.3913C1.34816 25.0941 0 23.1524 0 20.8161C0 18.5146 1.47981 16.6001 3.55303 15.959C3.04169 15.5481 2.58773 15.0882 2.19682 14.5757C1.09374 13.1297 0.583926 11.3852 0.583926 9.42958C0.583926 6.6667 1.65723 4.27211 3.5502 2.58215C5.4301 0.903859 8.02519 0 10.9624 0C13.3931 0 15.6389 0.645941 17.3192 1.79166C18.3762 2.51234 19.2463 3.46375 19.7469 4.59172C19.7551 4.55071 19.7637 4.51017 19.7728 4.47009C19.9548 3.66119 20.2829 3.10081 20.7104 2.53828L20.7232 2.52138L20.7366 2.50487C21.756 1.24276 23.3969 0.401448 25.0296 0.401448C26.5328 0.401448 28.0352 1.08459 29.0255 2.12379C29.5614 2.68436 29.9579 3.30892 30.2043 4.08711C30.4409 4.83424 30.5177 5.65703 30.5177 6.58294V16.1812C30.5177 16.8608 30.6761 17.214 30.7921 17.3639C30.8707 17.4655 30.9822 17.5543 31.2703 17.5543C31.5779 17.5543 31.6935 17.4594 31.7652 17.3702C31.8703 17.2395 32.023 16.9215 32.023 16.2907V6.58294C32.023 5.68583 32.0547 4.93064 32.2375 4.25802C32.4377 3.52169 32.7882 2.98497 33.2252 2.45945C34.24 1.20809 35.766 0.401448 37.4381 0.401448C39.0283 0.401448 40.6736 1.17148 41.6786 2.37587C42.0462 2.81382 42.3403 3.26218 42.5508 3.80776C42.7826 3.17767 43.1278 2.67616 43.5694 2.19376C44.5832 1.03707 46.0375 0.401448 47.5963 0.401448C49.1444 0.401448 50.6339 1.02895 51.6523 2.14919L51.6601 2.15778L51.6678 2.1665C52.043 2.59289 52.3501 3.03973 52.5795 3.567C52.9875 2.68921 53.6077 2.04141 54.3935 1.52231C55.1343 1.01513 56.1171 0.752059 56.9798 0.664819C57.3905 0.61985 58.1801 0.583925 59.2472 0.583925H64.0646C65.3542 0.583925 66.2519 0.599168 66.9492 0.705169C67.7429 0.825807 68.2745 1.06146 68.8489 1.40552C69.448 1.75799 69.952 2.22944 70.3423 2.77992C70.555 2.49985 70.7979 2.24298 71.0692 2.00301L71.0706 2.00177L71.072 2.00054C71.6458 1.49564 72.2543 1.10742 73.0562 0.870778C73.8126 0.647584 74.6614 0.583925 75.6709 0.583925H79.0285C81.0721 0.583925 82.0683 0.69877 83.2707 0.989001L83.297 0.995341L83.323 1.00266C86.1854 1.8086 88.489 3.78336 89.7369 6.34257C89.7457 5.93235 89.7633 5.5986 89.7981 5.31106C89.8692 4.72265 90.0104 4.33144 90.194 3.90005C90.6817 2.58775 91.7519 1.60009 92.8917 1.10455L92.9112 1.09607L92.931 1.08816C93.4173 0.893645 93.832 0.735736 94.4796 0.658029C95.0395 0.590834 95.7744 0.583925 96.9318 0.583925H101.749C104.017 0.583925 104.425 0.612639 105.181 0.813907C106.522 1.16458 107.614 1.97741 108.287 3.06646C108.505 2.68549 108.769 2.33334 109.078 2.01645C110.116 0.951983 111.554 0.401448 113.149 0.401448C113.941 0.401448 114.698 0.565789 115.417 0.94883C116.122 1.32443 116.72 1.87245 117.259 2.54016C117.259 2.54084 117.26 2.54152 117.26 2.5422L121.091 7.24876V6.76542C121.091 5.06289 121.243 3.97836 122.068 2.78546C123.033 1.32565 124.759 0.401448 126.543 0.401448C128.2 0.401448 129.688 1.15866 130.709 2.37403L130.722 2.39L130.735 2.40635C131.176 2.96346 131.51 3.5529 131.72 4.26197C131.879 4.79459 131.956 5.35509 131.983 5.96177C132.486 4.65876 133.28 3.51346 134.323 2.58215C136.203 0.903859 138.798 0 141.735 0C144.166 0 146.412 0.645941 148.092 1.79166C149.774 2.93825 150.983 4.66889 150.983 6.76542C150.983 8.83128 149.84 10.5666 148.061 11.2322C148.394 11.4514 148.699 11.6757 148.969 11.9023C150.847 13.4611 151.931 16.0856 151.931 18.7359C151.931 21.2814 150.959 23.764 149.224 25.5422L149.218 25.5486L149.211 25.5548C147.235 27.5315 144.642 28.4209 141.371 28.4209C138.545 28.4209 135.962 27.6868 134.043 26.3913C133.112 25.763 132.316 24.9834 131.742 24.0811C131.554 24.7922 131.249 25.3626 130.826 25.9192L130.823 25.9225L130.821 25.9258C129.8 27.2524 128.199 27.983 126.543 27.983C124.781 27.983 123.317 27.1967 122.231 25.7832C122.23 25.7815 122.229 25.7797 122.227 25.778L118.455 20.9431V21.8745C118.455 22.7274 118.399 23.4674 118.203 24.1505C117.997 24.8661 117.664 25.4325 117.232 25.9781L117.219 25.9945L117.206 26.0104C116.175 27.237 114.646 27.983 113.003 27.983C111.321 27.983 109.697 27.1963 108.657 25.8589L108.641 25.8379L108.625 25.8163C108.497 25.6383 108.379 25.4596 108.272 25.2757C107.983 25.7813 107.613 26.2358 107.177 26.6117L107.163 26.6242L107.148 26.6363C106.616 27.0715 106.057 27.3939 105.315 27.5828C104.631 27.7569 103.852 27.8005 102.917 27.8005H96.6763C94.7942 27.8005 94.063 27.7332 93.1139 27.3835L93.0885 27.3741L93.0635 27.3638C91.8313 26.8564 90.9066 25.9871 90.3592 24.8336C89.5122 26.7174 87.6106 27.983 85.3787 27.983C83.4567 27.983 81.821 27.0669 80.8286 25.4295L80.8268 25.4264L79.9744 24.012C79.3501 26.319 77.3224 27.983 74.795 27.983C73.1867 27.983 71.5566 27.2618 70.5342 25.9838L70.5295 25.9778L70.5247 25.9718C69.5992 24.7891 69.2705 23.3717 69.2705 21.6555V14.9229C69.1181 15.8803 68.685 16.743 67.9129 17.3913C66.9652 18.1871 65.702 18.4942 64.3565 18.4942H62.9105V20.8891C62.9105 22.0498 62.8959 22.8873 62.7804 23.5628C62.6487 24.3332 62.3938 24.8633 62.0413 25.4364C61.0857 26.9949 59.3438 27.983 57.4589 27.983C55.4533 27.983 53.5491 26.8666 52.67 25.1084L52.6648 25.098L52.6598 25.0875C52.6227 25.0104 52.5872 24.9343 52.5532 24.8585C52.3427 25.3222 52.06 25.754 51.6888 26.1623L51.6877 26.1634L51.6867 26.1646C50.6555 27.294 49.1059 27.983 47.6328 27.983C46.1648 27.983 44.5636 27.3241 43.5769 26.2354C43.0724 25.6823 42.6974 25.08 42.467 24.323C42.2471 23.6005 42.1812 22.8077 42.1812 21.911V20.7912C41.7068 22.1038 41.0059 23.2797 40.05 24.3564C37.8162 26.918 34.5814 28.4209 31.2703 28.4209C27.5532 28.4209 24.0263 26.588 21.8285 23.6023L21.8274 23.6008L21.8264 23.5993C21.3781 22.9871 21.0015 22.3851 20.6931 21.7571C20.2447 23.178 19.4825 24.4847 18.4507 25.5422L18.4445 25.5486ZM19.7117 18.335C19.718 18.4682 19.7213 18.6018 19.7213 18.7359C19.7213 20.9256 18.8819 23.0424 17.4221 24.5387C15.7798 26.181 13.59 26.9839 10.5974 26.9839C5.41509 26.9839 1.4371 24.2832 1.4371 20.8161C1.4371 18.7724 3.04289 17.1666 5.08663 17.1666C5.24347 17.1666 5.39661 17.1749 5.54737 17.1923C5.98587 17.2428 6.4043 17.37 6.83522 17.5919C6.8485 17.5987 6.86178 17.6056 6.87507 17.6126C7.04622 17.7029 7.21949 17.8082 7.39691 17.9295C7.57106 18.0486 7.7492 18.1833 7.93327 18.3344C9.68505 19.6848 9.90402 19.8308 10.4879 19.8308C11.1084 19.8308 11.5098 19.3928 11.5098 18.7724C11.5098 18.3344 11.3273 18.0425 10.8894 17.7505C10.6704 17.6045 10.5609 17.5316 9.2836 17.0571C8.87086 16.9195 8.45812 16.782 8.04538 16.6353C7.8012 16.5486 7.55702 16.4587 7.31285 16.3637C6.83373 16.1958 6.38736 16.0084 5.97366 15.8016C3.3307 14.4804 2.02102 12.3643 2.02102 9.42958C2.02102 4.68518 5.67056 1.4371 10.9624 1.4371C15.3418 1.4371 18.7724 3.7728 18.7724 6.76542C18.7724 8.69967 17.4586 10.0865 15.6338 10.0865C15.4622 10.0865 15.2959 10.0775 15.1323 10.0585C14.4766 9.98203 13.8645 9.74334 13.1237 9.26988C12.8706 9.10817 12.6026 8.91906 12.3127 8.69967C11.4733 8.00626 11.0719 7.82378 10.6339 7.82378C10.123 7.82378 9.68505 8.26173 9.68505 8.77266C9.68505 9.50257 10.196 9.83103 12.0937 10.4515C12.233 10.493 12.3717 10.5361 12.5097 10.5808C13.2817 10.8307 14.0316 11.1279 14.7209 11.4515C15.7498 11.9344 16.644 12.476 17.2761 13.0061C18.5077 14.0275 19.3685 15.6918 19.6344 17.5309C19.6728 17.7958 19.6987 18.0643 19.7117 18.335ZM19.578 13.4358C19.1837 12.8567 18.7212 12.3381 18.1967 11.9026C17.9261 11.6759 17.6209 11.4515 17.2877 11.2322C18.2768 10.8621 19.0693 10.1612 19.578 9.25667V13.4358ZM21.0648 17.3848C21.0847 17.6716 21.1109 17.9456 21.1441 18.2089C21.3697 19.9984 21.9171 21.2906 22.9859 22.7504C24.9201 25.3781 28.0223 26.9839 31.2703 26.9839C34.1535 26.9839 37.0001 25.67 38.9709 23.4073C40.7226 21.4366 41.5255 19.0644 41.5255 15.7798V7.13037C41.5255 4.94065 41.3431 4.21074 40.5767 3.29836C39.8467 2.42247 38.6059 1.83854 37.4381 1.83854C36.2337 1.83854 35.1023 2.42247 34.3359 3.37135C33.606 4.24724 33.4601 4.79467 33.4601 6.58294V16.2907C33.4601 17.9695 32.6572 18.9914 31.2703 18.9914C29.8835 18.9914 29.0806 17.933 29.0806 16.1812V6.58294C29.0806 4.86766 28.7887 3.95528 27.9858 3.11588C27.2558 2.34948 26.1245 1.83854 25.0296 1.83854C23.8618 1.83854 22.6209 2.45897 21.8545 3.40785C21.1611 4.32023 21.0151 4.90416 21.0151 7.20336V15.7798C21.0151 16.36 21.0306 16.8915 21.0648 17.3848ZM60.8165 24.6846C61.4004 23.7358 61.4734 23.2613 61.4734 20.8891V17.0571H64.3565C66.6557 17.0571 67.8966 15.9987 67.8966 14.101C67.8966 13.0791 67.3856 12.2032 66.5462 11.6923C65.9258 11.3273 65.3419 11.2179 63.9551 11.2179H61.4734V9.53907H65.5244C66.9842 9.53907 67.7871 9.3201 68.5535 8.66318C68.8296 8.41333 69.0726 8.1019 69.2705 7.75448C69.464 7.41473 69.6143 7.04056 69.7103 6.65593C69.7886 6.34227 69.8308 6.02165 69.8308 5.70705C69.8308 5.22251 69.7363 4.75373 69.5612 4.32461C69.2747 3.62248 68.7724 3.02652 68.1155 2.64144C67.2031 2.09401 66.6922 2.02102 64.0646 2.02102H59.2472C58.1888 2.02102 57.4589 2.05752 57.1304 2.09401C56.4005 2.167 55.6706 2.38598 55.1962 2.71444C53.9188 3.55383 53.4444 4.64869 53.4444 6.80192V20.8526C53.4444 23.0788 53.5174 23.5533 53.9553 24.4657C54.5758 25.7065 55.9626 26.5459 57.4589 26.5459C58.8457 26.5459 60.1231 25.816 60.8165 24.6846ZM69.2705 9.93189C68.7693 10.3181 68.2506 10.5717 67.6838 10.7321C68.5216 11.3754 69.0884 12.2978 69.2705 13.3553V9.93189ZM78.7365 19.1738L82.0576 24.6846C82.7875 25.889 83.9554 26.5459 85.3787 26.5459C87.6414 26.5459 89.3932 24.8306 89.3932 22.6044C89.3932 21.765 89.1377 20.8161 88.6268 20.0132L86.729 16.9841C88.5903 14.9039 89.3202 13.1156 89.3202 10.7799C89.3202 6.83841 86.6925 3.44434 82.9335 2.38598C81.8751 2.13051 80.9992 2.02102 79.0285 2.02102H75.6709C73.7367 2.02102 72.9338 2.27649 72.0214 3.07939C71.5993 3.45281 71.2927 3.85512 71.0824 4.34095C70.9129 4.73253 70.806 5.17836 70.7515 5.70705C70.7217 5.99688 70.7076 6.3116 70.7076 6.65593V21.6555C70.7076 23.1883 70.9995 24.2467 71.6564 25.0861C72.3863 25.9985 73.5907 26.5459 74.795 26.5459C77.0213 26.5459 78.7365 24.7941 78.7365 22.4949V19.1738ZM88.502 17.1072L89.7284 19.0648V15.2209C89.4026 15.855 88.9956 16.4779 88.502 17.1072ZM91.3115 23.1153C91.202 22.6044 91.1655 22.3854 91.1655 20.7066V7.49533C91.1655 5.45159 91.202 5.19612 91.5304 4.42972C91.8589 3.51733 92.6253 2.78742 93.4647 2.42247C94.3771 2.05752 94.5596 2.02102 96.9318 2.02102H101.749C104.048 2.02102 104.267 2.05752 104.815 2.2035C106.354 2.60495 107.402 3.80375 107.566 5.29387C107.581 5.42932 107.588 5.56717 107.588 5.70705C107.588 5.85442 107.581 6.00062 107.566 6.145C107.554 6.26272 107.537 6.37922 107.515 6.49416C107.352 7.35543 106.922 8.1286 106.275 8.66318C105.545 9.2836 104.705 9.53907 103.209 9.53907H99.1945V11.2179H102.37C104.34 11.2179 105.618 12.3857 105.618 14.101C105.618 15.0134 105.216 15.8528 104.559 16.4002C103.939 16.8746 103.355 17.0206 102.078 17.0206H99.1945V18.8454H102.88C104.632 18.8454 105.399 19.0644 106.238 19.7578C106.956 20.382 107.407 21.2197 107.522 22.1339C107.542 22.2888 107.552 22.4458 107.552 22.6044C107.552 22.6418 107.551 22.6792 107.55 22.7165C107.518 23.8077 107.014 24.8535 106.238 25.524C105.435 26.181 104.742 26.3634 102.917 26.3634H96.6763C94.815 26.3634 94.3041 26.2904 93.6107 26.035C92.3698 25.524 91.5669 24.5387 91.3115 23.1153ZM108.957 22.0314C108.962 22.2371 108.971 22.4272 108.983 22.6044C108.985 22.6292 108.987 22.6537 108.988 22.678C109.069 23.699 109.294 24.2855 109.792 24.9766C110.558 25.962 111.762 26.5459 113.003 26.5459C114.207 26.5459 115.339 25.9985 116.105 25.0861C116.799 24.2102 117.018 23.4803 117.018 21.8745V16.7651L123.368 24.9036C124.207 25.9985 125.266 26.5459 126.543 26.5459C127.784 26.5459 128.952 25.9985 129.681 25.0496C130.375 24.1372 130.557 23.3343 130.557 21.4001V6.50995C130.557 5.01364 130.302 4.17425 129.608 3.29836C128.842 2.38598 127.747 1.83854 126.543 1.83854C125.229 1.83854 123.952 2.53196 123.258 3.59032C122.674 4.42972 122.528 5.15962 122.528 6.76542V11.2908L116.142 3.44434C115.229 2.31298 114.317 1.83854 113.149 1.83854C110.907 1.83854 109.331 3.19801 109.012 5.32467C108.993 5.44953 108.979 5.57703 108.969 5.70705C108.958 5.85003 108.952 5.99607 108.952 6.145V21.546C108.952 21.7172 108.954 21.8786 108.957 22.0314ZM107.515 9.47628V18.9895C107.409 18.88 107.297 18.7745 107.181 18.6733L107.167 18.6614L107.153 18.6498C106.606 18.1979 106.027 17.8601 105.282 17.6557C105.281 17.6554 105.28 17.6551 105.278 17.6548C105.33 17.6183 105.381 17.5806 105.432 17.5418L105.456 17.5235L105.479 17.5042C106.468 16.6801 107.055 15.4342 107.055 14.101C107.055 12.8663 106.584 11.7449 105.691 10.9454C105.602 10.8655 105.51 10.7898 105.414 10.7183C106.07 10.5307 106.651 10.2272 107.197 9.76488C107.308 9.67295 107.414 9.57664 107.515 9.47628ZM131.994 17.4869C132.603 16.7786 133.406 16.2435 134.326 15.959C133.815 15.5481 133.361 15.0882 132.97 14.5757C132.567 14.0475 132.243 13.4794 131.994 12.8757V17.4869ZM136.747 15.8016C137.16 16.0084 137.607 16.1958 138.086 16.3637C138.33 16.4587 138.574 16.5486 138.818 16.6353C139.231 16.7819 139.644 16.9195 140.057 17.0571C141.334 17.5316 141.444 17.6045 141.663 17.7505C142.1 18.0425 142.283 18.3344 142.283 18.7724C142.283 19.3928 141.881 19.8308 141.261 19.8308C140.677 19.8308 140.458 19.6848 138.706 18.3344C138.522 18.1833 138.344 18.0486 138.17 17.9295C137.993 17.8082 137.819 17.7029 137.648 17.6126C137.635 17.6056 137.622 17.5987 137.608 17.5919C137.177 17.37 136.759 17.2428 136.32 17.1923C136.17 17.1749 136.017 17.1666 135.86 17.1666C133.816 17.1666 132.21 18.7724 132.21 20.8161C132.21 24.2832 136.188 26.9839 141.371 26.9839C144.363 26.9839 146.553 26.181 148.195 24.5387C149.655 23.0424 150.494 20.9256 150.494 18.7359C150.494 16.4367 149.545 14.247 148.049 13.0061C147.417 12.476 146.523 11.9344 145.494 11.4515C144.805 11.1279 144.055 10.8307 143.283 10.5808C143.145 10.5361 143.006 10.493 142.867 10.4515C140.969 9.83103 140.458 9.50257 140.458 8.77266C140.458 8.26173 140.896 7.82378 141.407 7.82378C141.845 7.82378 142.246 8.00626 143.086 8.69967C143.376 8.91906 143.644 9.10817 143.897 9.26989C144.638 9.74334 145.25 9.98203 145.905 10.0585C146.069 10.0775 146.235 10.0865 146.407 10.0865C148.232 10.0865 149.545 8.69967 149.545 6.76542C149.545 3.7728 146.115 1.4371 141.735 1.4371C136.444 1.4371 132.794 4.68518 132.794 9.42958C132.794 12.3643 134.104 14.4804 136.747 15.8016ZM50.6254 25.1956C49.859 26.035 48.6912 26.5459 47.6328 26.5459C46.5379 26.5459 45.3336 26.035 44.6402 25.2686C43.8738 24.4292 43.6183 23.5898 43.6183 21.911V6.83841C43.6183 4.79467 43.8008 4.06476 44.6402 3.15238C45.3701 2.31298 46.4285 1.83854 47.5963 1.83854C48.7642 1.83854 49.859 2.31298 50.5889 3.11588C51.3918 4.02827 51.6473 4.86766 51.6473 6.83841V21.911C51.6473 23.4438 51.3553 24.3927 50.6254 25.1956ZM78.7365 12.0937H79.6124C79.7053 12.0966 79.7946 12.0965 79.8805 12.0937C79.9832 12.0904 80.0809 12.083 80.1736 12.0717C81.009 11.9694 81.4372 11.544 81.4372 10.8164C81.4372 10.0985 80.9959 9.65032 80.1736 9.53206C79.9926 9.50603 79.7932 9.49599 79.5759 9.50257C79.3934 9.50257 79.1015 9.50257 78.7365 9.46608V12.0937Z" fill="black"/>
<defs>
<linearGradient id="paint0_linear_291_492" x1="75.9193" y1="0.958439" x2="75.9193" y2="28.0024" gradientUnits="userSpaceOnUse">
<stop stop-color="white"/>
<stop offset="0.708333" stop-color="white"/>
</linearGradient>
<linearGradient id="paint1_linear_291_492" x1="75.9193" y1="0.958439" x2="75.9193" y2="28.0024" gradientUnits="userSpaceOnUse">
<stop stop-color="white"/>
<stop offset="0.708333" stop-color="white"/>
</linearGradient>
<linearGradient id="paint2_linear_291_492" x1="75.9193" y1="0.958439" x2="75.9193" y2="28.0024" gradientUnits="userSpaceOnUse">
<stop stop-color="white"/>
<stop offset="0.708333" stop-color="white"/>
</linearGradient>
<linearGradient id="paint3_linear_291_492" x1="75.9193" y1="0.958439" x2="75.9193" y2="28.0024" gradientUnits="userSpaceOnUse">
<stop stop-color="white"/>
<stop offset="0.708333" stop-color="white"/>
</linearGradient>
<linearGradient id="paint4_linear_291_492" x1="75.9193" y1="0.958439" x2="75.9193" y2="28.0024" gradientUnits="userSpaceOnUse">
<stop stop-color="white"/>
<stop offset="0.708333" stop-color="white"/>
</linearGradient>
<linearGradient id="paint5_linear_291_492" x1="75.9193" y1="0.958439" x2="75.9193" y2="28.0024" gradientUnits="userSpaceOnUse">
<stop stop-color="white"/>
<stop offset="0.708333" stop-color="white"/>
</linearGradient>
<linearGradient id="paint6_linear_291_492" x1="75.9193" y1="0.958439" x2="75.9193" y2="28.0024" gradientUnits="userSpaceOnUse">
<stop stop-color="white"/>
<stop offset="0.708333" stop-color="white"/>
</linearGradient>
<linearGradient id="paint7_linear_291_492" x1="75.9193" y1="0.958439" x2="75.9193" y2="28.0024" gradientUnits="userSpaceOnUse">
<stop stop-color="white"/>
<stop offset="0.708333" stop-color="white"/>
</linearGradient>
</defs>
</svg>
