<?xml version="1.0" encoding="UTF-8" standalone="no"?>
<svg
   zoomAndPan="magnify"
   viewBox="0 0 375 374.999991"
   preserveAspectRatio="xMidYMid meet"
   version="1.0"
   id="svg64"
   sodipodi:docname="Trident_C.svg"
   inkscape:version="1.3.2 (091e20e, 2023-11-25)"
   xmlns:inkscape="http://www.inkscape.org/namespaces/inkscape"
   xmlns:sodipodi="http://sodipodi.sourceforge.net/DTD/sodipodi-0.dtd"
   xmlns="http://www.w3.org/2000/svg"
   xmlns:svg="http://www.w3.org/2000/svg">
  <sodipodi:namedview
     id="namedview64"
     pagecolor="#ffffff"
     bordercolor="#000000"
     borderopacity="0.25"
     inkscape:showpageshadow="2"
     inkscape:pageopacity="0.0"
     inkscape:pagecheckerboard="0"
     inkscape:deskcolor="#d1d1d1"
     inkscape:zoom="1.588"
     inkscape:cx="250"
     inkscape:cy="236.1461"
     inkscape:window-width="1440"
     inkscape:window-height="939"
     inkscape:window-x="756"
     inkscape:window-y="25"
     inkscape:window-maximized="0"
     inkscape:current-layer="g60" />
  <defs
     id="defs32">
    <clipPath
       id="b8eb647782">
      <path
         d="M 65 189 L 107 189 L 107 235 L 65 235 Z M 65 189 "
         clip-rule="nonzero"
         id="path1" />
    </clipPath>
    <clipPath
       id="c47b3143fe">
      <path
         d="M 341.695312 52.738281 L 382.839844 251.015625 L 41.363281 321.878906 L 0.21875 123.601562 Z M 341.695312 52.738281 "
         clip-rule="nonzero"
         id="path2" />
    </clipPath>
    <clipPath
       id="fb5b1a35e7">
      <path
         d="M 341.695312 52.738281 L 382.839844 251.015625 L 41.363281 321.878906 L 0.21875 123.601562 Z M 341.695312 52.738281 "
         clip-rule="nonzero"
         id="path3" />
    </clipPath>
    <clipPath
       id="297749cae8">
      <path
         d="M 341.695312 52.738281 L 382.839844 251.015625 L 41.363281 321.878906 L 0.21875 123.601562 Z M 341.695312 52.738281 "
         clip-rule="nonzero"
         id="path4" />
    </clipPath>
    <clipPath
       id="ffb12124ba">
      <path
         d="M 21 190 L 75 190 L 75 244 L 21 244 Z M 21 190 "
         clip-rule="nonzero"
         id="path5" />
    </clipPath>
    <clipPath
       id="887408239d">
      <path
         d="M 341.695312 52.738281 L 382.839844 251.015625 L 41.363281 321.878906 L 0.21875 123.601562 Z M 341.695312 52.738281 "
         clip-rule="nonzero"
         id="path6" />
    </clipPath>
    <clipPath
       id="3c27b34b2c">
      <path
         d="M 341.695312 52.738281 L 382.839844 251.015625 L 41.363281 321.878906 L 0.21875 123.601562 Z M 341.695312 52.738281 "
         clip-rule="nonzero"
         id="path7" />
    </clipPath>
    <clipPath
       id="e64b4c8a8f">
      <path
         d="M 341.695312 52.738281 L 382.839844 251.015625 L 41.363281 321.878906 L 0.21875 123.601562 Z M 341.695312 52.738281 "
         clip-rule="nonzero"
         id="path8" />
    </clipPath>
    <clipPath
       id="32b14cbe5e">
      <path
         d="M 103 205 L 136 205 L 136 260 L 103 260 Z M 103 205 "
         clip-rule="nonzero"
         id="path9" />
    </clipPath>
    <clipPath
       id="1a58fa229f">
      <path
         d="M 341.695312 52.738281 L 382.839844 251.015625 L 41.363281 321.878906 L 0.21875 123.601562 Z M 341.695312 52.738281 "
         clip-rule="nonzero"
         id="path10" />
    </clipPath>
    <clipPath
       id="1314d811c0">
      <path
         d="M 341.695312 52.738281 L 382.839844 251.015625 L 41.363281 321.878906 L 0.21875 123.601562 Z M 341.695312 52.738281 "
         clip-rule="nonzero"
         id="path11" />
    </clipPath>
    <clipPath
       id="20580f37ba">
      <path
         d="M 341.695312 52.738281 L 382.839844 251.015625 L 41.363281 321.878906 L 0.21875 123.601562 Z M 341.695312 52.738281 "
         clip-rule="nonzero"
         id="path12" />
    </clipPath>
    <clipPath
       id="a29db4f604">
      <path
         d="M 93 147 L 122 147 L 122 206 L 93 206 Z M 93 147 "
         clip-rule="nonzero"
         id="path13" />
    </clipPath>
    <clipPath
       id="b3d5a6e322">
      <path
         d="M 341.695312 52.738281 L 382.839844 251.015625 L 41.363281 321.878906 L 0.21875 123.601562 Z M 341.695312 52.738281 "
         clip-rule="nonzero"
         id="path14" />
    </clipPath>
    <clipPath
       id="9fe7553416">
      <path
         d="M 341.695312 52.738281 L 382.839844 251.015625 L 41.363281 321.878906 L 0.21875 123.601562 Z M 341.695312 52.738281 "
         clip-rule="nonzero"
         id="path15" />
    </clipPath>
    <clipPath
       id="3aad83d8a2">
      <path
         d="M 341.695312 52.738281 L 382.839844 251.015625 L 41.363281 321.878906 L 0.21875 123.601562 Z M 341.695312 52.738281 "
         clip-rule="nonzero"
         id="path16" />
    </clipPath>
    <clipPath
       id="ab2add1134">
      <path
         d="M 151 70 L 345 70 L 345 276 L 151 276 Z M 151 70 "
         clip-rule="nonzero"
         id="path17" />
    </clipPath>
    <clipPath
       id="f5db7a1381">
      <path
         d="M 341.695312 52.738281 L 382.839844 251.015625 L 41.363281 321.878906 L 0.21875 123.601562 Z M 341.695312 52.738281 "
         clip-rule="nonzero"
         id="path18" />
    </clipPath>
    <clipPath
       id="4e5ea45e45">
      <path
         d="M 341.695312 52.738281 L 382.839844 251.015625 L 41.363281 321.878906 L 0.21875 123.601562 Z M 341.695312 52.738281 "
         clip-rule="nonzero"
         id="path19" />
    </clipPath>
    <clipPath
       id="1eabbe56a5">
      <path
         d="M 341.695312 52.738281 L 382.839844 251.015625 L 41.363281 321.878906 L 0.21875 123.601562 Z M 341.695312 52.738281 "
         clip-rule="nonzero"
         id="path20" />
    </clipPath>
    <clipPath
       id="32e57b5d33">
      <path
         d="M 103 158 L 192 158 L 192 235 L 103 235 Z M 103 158 "
         clip-rule="nonzero"
         id="path21" />
    </clipPath>
    <clipPath
       id="83e8b01661">
      <path
         d="M 341.695312 52.738281 L 382.839844 251.015625 L 41.363281 321.878906 L 0.21875 123.601562 Z M 341.695312 52.738281 "
         clip-rule="nonzero"
         id="path22" />
    </clipPath>
    <clipPath
       id="61f725bb99">
      <path
         d="M 341.695312 52.738281 L 382.839844 251.015625 L 41.363281 321.878906 L 0.21875 123.601562 Z M 341.695312 52.738281 "
         clip-rule="nonzero"
         id="path23" />
    </clipPath>
    <clipPath
       id="517948589e">
      <path
         d="M 341.695312 52.738281 L 382.839844 251.015625 L 41.363281 321.878906 L 0.21875 123.601562 Z M 341.695312 52.738281 "
         clip-rule="nonzero"
         id="path24" />
    </clipPath>
    <clipPath
       id="7ecacdd36c">
      <path
         d="M 15 60 L 363 60 L 363 281 L 15 281 Z M 15 60 "
         clip-rule="nonzero"
         id="path25" />
    </clipPath>
    <clipPath
       id="101d1b9a58">
      <path
         d="M 341.695312 52.738281 L 382.839844 251.015625 L 41.363281 321.878906 L 0.21875 123.601562 Z M 341.695312 52.738281 "
         clip-rule="nonzero"
         id="path26" />
    </clipPath>
    <clipPath
       id="75397c7d99">
      <path
         d="M 341.695312 52.738281 L 382.839844 251.015625 L 41.363281 321.878906 L 0.21875 123.601562 Z M 341.695312 52.738281 "
         clip-rule="nonzero"
         id="path27" />
    </clipPath>
    <clipPath
       id="12c90518b7">
      <path
         d="M 341.695312 52.738281 L 382.839844 251.015625 L 41.363281 321.878906 L 0.21875 123.601562 Z M 341.695312 52.738281 "
         clip-rule="nonzero"
         id="path28" />
    </clipPath>
    <clipPath
       id="79d5ddee5a">
      <path
         d="M 130 179 L 165 179 L 165 214 L 130 214 Z M 130 179 "
         clip-rule="nonzero"
         id="path29" />
    </clipPath>
    <clipPath
       id="6b5d225869">
      <path
         d="M 341.695312 52.738281 L 382.839844 251.015625 L 41.363281 321.878906 L 0.21875 123.601562 Z M 341.695312 52.738281 "
         clip-rule="nonzero"
         id="path30" />
    </clipPath>
    <clipPath
       id="298d55bbba">
      <path
         d="M 341.695312 52.738281 L 382.839844 251.015625 L 41.363281 321.878906 L 0.21875 123.601562 Z M 341.695312 52.738281 "
         clip-rule="nonzero"
         id="path31" />
    </clipPath>
    <clipPath
       id="07d4010d89">
      <path
         d="M 341.695312 52.738281 L 382.839844 251.015625 L 41.363281 321.878906 L 0.21875 123.601562 Z M 341.695312 52.738281 "
         clip-rule="nonzero"
         id="path32" />
    </clipPath>
  </defs>
  <g
     clip-path="url(#b8eb647782)"
     id="g36">
    <g
       clip-path="url(#c47b3143fe)"
       id="g35">
      <g
         clip-path="url(#fb5b1a35e7)"
         id="g34">
        <g
           clip-path="url(#297749cae8)"
           id="g33">
          <path
             fill="#969faa"
             d="M 106.628906 221.351562 L 74.972656 234.378906 L 65.867188 190.503906 L 100.09375 189.859375 L 106.628906 221.351562 "
             fill-opacity="1"
             fill-rule="nonzero"
             id="path33" />
        </g>
      </g>
    </g>
  </g>
  <g
     clip-path="url(#ffb12124ba)"
     id="g40">
    <g
       clip-path="url(#887408239d)"
       id="g39">
      <g
         clip-path="url(#3c27b34b2c)"
         id="g38">
        <g
           clip-path="url(#e64b4c8a8f)"
           id="g37">
          <path
             fill="#969faa"
             d="M 74.972656 234.378906 L 31.050781 243.492188 L 21.949219 199.617188 L 65.867188 190.503906 L 74.972656 234.378906 "
             fill-opacity="1"
             fill-rule="nonzero"
             id="path36" />
        </g>
      </g>
    </g>
  </g>
  <g
     clip-path="url(#32b14cbe5e)"
     id="g44">
    <g
       clip-path="url(#1a58fa229f)"
       id="g43">
      <g
         clip-path="url(#1314d811c0)"
         id="g42">
        <g
           clip-path="url(#20580f37ba)"
           id="g41">
          <path
             fill="#ccd1d9"
             d="M 131.210938 257.03125 L 120.230469 259.308594 C 117.207031 259.9375 114.230469 257.984375 113.601562 254.964844 L 103.417969 205.882812 L 129.339844 220.414062 L 135.5625 250.40625 C 136.1875 253.425781 134.234375 256.402344 131.210938 257.03125 "
             fill-opacity="1"
             fill-rule="nonzero"
             id="path40" />
        </g>
      </g>
    </g>
  </g>
  <g
     clip-path="url(#a29db4f604)"
     id="g48">
    <g
       clip-path="url(#b3d5a6e322)"
       id="g47">
      <g
         clip-path="url(#9fe7553416)"
         id="g46">
        <g
           clip-path="url(#3aad83d8a2)"
           id="g45">
          <path
             fill="#ccd1d9"
             d="M 121.3125 181.746094 L 103.300781 205.328125 L 93.117188 156.246094 C 92.492188 153.226562 94.445312 150.25 97.46875 149.625 L 108.449219 147.34375 C 111.472656 146.71875 114.449219 148.667969 115.078125 151.691406 L 121.3125 181.746094 "
             fill-opacity="1"
             fill-rule="nonzero"
             id="path44" />
        </g>
      </g>
    </g>
  </g>
  <g
     clip-path="url(#ab2add1134)"
     id="g52">
    <g
       clip-path="url(#f5db7a1381)"
       id="g51">
      <g
         clip-path="url(#4e5ea45e45)"
         id="g50">
        <g
           clip-path="url(#1eabbe56a5)"
           id="g49">
          <path
             fill="#fcd770"
             d="M 324.917969 256.363281 C 305.03125 249.449219 286.089844 240.105469 268.460938 228.546875 C 269.40625 233.113281 268.394531 237.613281 266.046875 241.183594 C 263.703125 244.753906 259.972656 247.472656 255.402344 248.417969 L 238.933594 251.835938 C 214.679688 256.871094 190.9375 241.304688 185.910156 217.078125 C 184.960938 212.515625 185.976562 208.011719 188.320312 204.441406 C 188.625 203.976562 188.945312 203.574219 189.265625 203.175781 C 191.628906 200.226562 194.953125 198.039062 198.964844 197.207031 L 259.355469 184.675781 C 271.492188 182.15625 283.351562 189.929688 285.867188 202.054688 L 289.386719 198.53125 C 305.882812 181.769531 324.582031 167.316406 344.917969 155.476562 C 321.550781 152.707031 298.644531 146.890625 276.839844 138.074219 L 272.210938 136.242188 C 273.457031 142.261719 272.128906 148.257812 269.019531 153.105469 C 265.828125 157.878906 260.851562 161.484375 254.800781 162.738281 L 194.414062 175.269531 C 190.402344 176.101562 186.480469 175.417969 183.140625 173.652344 C 178.859375 171.457031 175.585938 167.332031 174.527344 162.234375 C 172.011719 150.109375 174.667969 138.117188 180.933594 128.527344 C 187.25 118.972656 197.207031 111.765625 209.34375 109.246094 L 225.8125 105.828125 C 234.929688 103.9375 243.808594 109.757812 245.699219 118.863281 C 257.273438 101.246094 270.933594 85.136719 286.429688 70.882812 L 287.140625 70.21875 L 204.792969 87.308594 C 168.890625 94.757812 145.582031 129.5625 152.285156 165.421875 L 179.1875 180.597656 L 191.199219 187.378906 L 182.878906 198.378906 L 164.234375 223.003906 C 172.417969 258.558594 207.585938 281.222656 243.484375 273.773438 L 325.835938 256.683594 L 324.917969 256.363281 "
             fill-opacity="1"
             fill-rule="nonzero"
             id="path48" />
        </g>
      </g>
    </g>
  </g>
  <g
     clip-path="url(#32e57b5d33)"
     id="g56">
    <g
       clip-path="url(#83e8b01661)"
       id="g55">
      <g
         clip-path="url(#61f725bb99)"
         id="g54">
        <g
           clip-path="url(#517948589e)"
           id="g53">
          <path
             fill="#ffc729"
             d="M 149.554688 207.460938 C 155.601562 206.203125 159.507812 200.234375 158.257812 194.210938 C 157.011719 188.191406 151.050781 184.269531 145.003906 185.523438 C 138.957031 186.777344 135.050781 192.75 136.300781 198.769531 C 137.546875 204.789062 143.507812 208.714844 149.554688 207.460938 Z M 129.339844 220.414062 L 103.417969 205.882812 L 103.300781 205.328125 L 121.3125 181.746094 L 139.3125 158.101562 L 152.285156 165.421875 L 179.1875 180.597656 L 191.199219 187.378906 L 182.878906 198.378906 L 164.234375 223.003906 L 155.246094 234.882812 L 129.339844 220.414062 "
             fill-opacity="1"
             fill-rule="nonzero"
             id="path52"
             inkscape:label="path52" />
        </g>
      </g>
    </g>
  </g>
  <g
     clip-path="url(#7ecacdd36c)"
     id="g60">
    <g
       clip-path="url(#101d1b9a58)"
       id="g59">
      <g
         clip-path="url(#75397c7d99)"
         id="g58">
        <g
           clip-path="url(#12c90518b7)"
           id="g57">
          <path
             fill="#000000"
             d="M 242.347656 268.289062 C 210.542969 274.890625 178.851562 255.1875 170.398438 224.140625 L 180.195312 211.203125 C 179.929688 213.492188 179.925781 215.839844 180.417969 218.214844 C 186.070312 245.445312 212.835938 262.972656 240.070312 257.320312 L 256.542969 253.902344 C 264.882812 252.171875 271.207031 245.988281 273.488281 238.34375 C 283.949219 244.664062 294.84375 250.269531 306.082031 255.0625 Z M 130.070312 251.546875 L 119.09375 253.824219 L 111.40625 216.785156 L 124.359375 224.015625 Z M 79.089844 226.617188 L 72.730469 195.984375 L 95.550781 195.5625 L 100.191406 217.925781 Z M 28.574219 203.960938 L 61.515625 197.128906 L 68.34375 230.03125 L 35.40625 236.867188 Z M 109.585938 152.828125 L 115.300781 180.359375 L 106.292969 192.148438 L 98.605469 155.109375 Z M 205.929688 92.792969 L 269.664062 79.566406 C 261.265625 88.460938 253.496094 97.917969 246.414062 107.878906 C 241.28125 101.792969 233.019531 98.613281 224.675781 100.34375 L 208.207031 103.761719 C 180.96875 109.414062 163.394531 136.167969 169.039062 163.375 C 169.53125 165.75 170.472656 167.902344 171.621094 169.898438 L 157.488281 161.925781 C 152.890625 130.078125 174.125 99.394531 205.929688 92.792969 Z M 153.710938 227.601562 L 111.402344 203.9375 L 140.804688 165.390625 L 182.855469 189.109375 Z M 278.015625 144.601562 C 294.507812 150.988281 311.554688 155.742188 328.941406 158.792969 C 314.203125 168.511719 300.453125 179.652344 287.867188 192.074219 C 281.886719 182.234375 270.140625 176.714844 258.214844 179.191406 L 197.828125 191.722656 C 196.496094 192 195.246094 192.4375 194.023438 192.914062 L 199.542969 185.644531 L 191.589844 181.171875 C 192.898438 181.125 194.222656 181.03125 195.550781 180.753906 L 255.941406 168.222656 C 267.863281 165.746094 276.445312 156.011719 278.015625 144.601562 Z M 326.769531 251.0625 C 307.339844 244.300781 288.753906 235.152344 271.535156 223.867188 L 260.222656 216.449219 L 262.96875 229.6875 C 264.222656 235.730469 260.3125 241.679688 254.265625 242.933594 L 237.796875 246.351562 C 216.609375 250.75 195.792969 237.105469 191.398438 215.9375 C 190.144531 209.898438 194.054688 203.945312 200.101562 202.691406 L 260.492188 190.160156 C 269.585938 188.273438 278.492188 194.109375 280.375 203.195312 L 282.5 213.433594 L 293.351562 202.445312 C 309.519531 186.039062 327.828125 171.871094 347.734375 160.324219 L 362.289062 151.875 L 345.574219 149.910156 C 322.71875 147.238281 300.28125 141.523438 278.921875 132.90625 L 264.59375 127.144531 L 266.71875 137.382812 C 268.605469 146.464844 262.757812 155.367188 253.664062 157.253906 L 193.273438 169.785156 C 187.226562 171.039062 181.273438 167.136719 180.019531 161.09375 C 175.625 139.929688 189.292969 119.128906 210.480469 114.730469 L 226.953125 111.3125 C 233 110.058594 238.953125 113.960938 240.207031 120.003906 L 242.957031 133.242188 L 250.382812 121.9375 C 261.6875 104.730469 275.097656 88.941406 290.238281 75.007812 L 305.796875 60.628906 L 203.652344 81.824219 C 168.828125 89.050781 144.734375 120.734375 145.679688 155.261719 L 137.828125 150.835938 L 124.300781 168.546875 L 120.566406 150.550781 C 119.3125 144.507812 113.359375 140.605469 107.3125 141.859375 L 96.332031 144.140625 C 90.285156 145.394531 86.375 151.34375 87.628906 157.386719 L 93.230469 184.378906 L 65.757812 184.917969 L 15.320312 195.273438 L 26.699219 250.117188 L 76.109375 239.863281 L 102.507812 229.089844 L 108.113281 256.101562 C 109.367188 262.144531 115.320312 266.046875 121.367188 264.792969 L 132.347656 262.515625 C 138.394531 261.257812 142.304688 255.308594 141.050781 249.265625 L 137.316406 231.273438 L 156.777344 242.160156 L 162.21875 234.953125 C 175.113281 267.023438 209.796875 286.484375 244.625 279.257812 L 346.765625 258.0625 L 326.769531 251.0625 "
             fill-opacity="1"
             fill-rule="nonzero"
             id="path56" />
        </g>
      </g>
    </g>
    <path
       style="fill:#ffaaaa;stroke-width:0.63;stroke-dasharray:none"
       d="m 177.88336,287.90452 c -14.71242,-8.23569 -27.2077,-15.24512 -27.76728,-15.57653 -0.85159,-0.50434 2.00481,-4.5543 17.52427,-24.84688 10.19794,-13.33438 18.91099,-24.75544 19.36233,-25.38012 0.75968,-1.05141 2.80257,-0.0181 27.50092,13.91036 14.67415,8.27538 27.15915,15.30585 27.74444,15.62326 0.90186,0.4891 -1.77045,4.32216 -17.52168,25.13246 -10.22221,13.50544 -18.92498,24.90546 -19.33949,25.33338 -0.59383,0.61304 -6.42648,-2.39748 -27.50351,-14.19593 z m 28.59188,-5.7053 c 4.54564,-2.2378 8.23101,-5.95634 10.55739,-10.6524 1.25857,-2.54055 1.47203,-3.92607 1.47627,-9.58208 0.005,-6.3297 -0.0865,-6.78068 -2.13554,-10.55941 -2.56095,-4.72271 -5.90204,-7.88979 -10.69325,-10.13633 -3.00215,-1.40768 -4.39885,-1.65943 -9.20656,-1.65943 -4.9158,0 -6.18821,0.24051 -9.59339,1.8133 -11.3303,5.23328 -16.2418,18.50236 -11.09983,29.98771 3.7864,8.45749 12.08004,13.41776 21.75451,13.01096 3.91473,-0.16462 5.62332,-0.58932 8.9404,-2.22232 z"
       id="path64"
       transform="scale(0.74999999)" />
  </g>
  <g
     clip-path="url(#79d5ddee5a)"
     id="g64">
    <g
       clip-path="url(#6b5d225869)"
       id="g63">
      <g
         clip-path="url(#298d55bbba)"
         id="g62">
        <g
           clip-path="url(#07d4010d89)"
           id="g61">
          <path
             fill="#000000"
             d="M 148.417969 201.976562 C 145.394531 202.601562 142.417969 200.652344 141.789062 197.628906 C 141.164062 194.609375 143.117188 191.632812 146.140625 191.007812 C 149.164062 190.378906 152.140625 192.332031 152.769531 195.351562 C 153.394531 198.371094 151.441406 201.347656 148.417969 201.976562 Z M 143.863281 180.039062 C 134.792969 181.921875 128.925781 190.824219 130.808594 199.910156 C 132.695312 208.992188 141.621094 214.828125 150.695312 212.945312 C 159.785156 211.058594 165.632812 202.15625 163.75 193.074219 C 161.863281 183.988281 152.957031 178.152344 143.863281 180.039062 "
             fill-opacity="1"
             fill-rule="nonzero"
             id="path60" />
        </g>
      </g>
    </g>
  </g>
</svg>
